<?xml version="1.0" encoding="UTF-8"?>
<svg width="64px" height="64px" viewBox="0 0 64 64" version="1.1" xmlns="http://www.w3.org/2000/svg" xmlns:xlink="http://www.w3.org/1999/xlink">
    <!-- Generator: sketchtool 54.1 (76490) - https://sketchapp.com -->
    <title>1773A286-53EB-4201-8D62-7A5EE922AC15</title>
    <desc>Created with sketchtool.</desc>
    <g id="Page-1" stroke="none" stroke-width="1" fill="none" fill-rule="evenodd">
        <g id="Components-/-Header-/-Tablet" transform="translate(-53.000000, -40.000000)">
            <g id="Header">
                <g id="Group-2" transform="translate(53.000000, 40.000000)">
                    <path d="M31.6871972,0 L33.4200907,1.98044982 L31.6871972,3.96089964 C16.3743859,3.96089964 3.96089964,16.3743859 3.96089964,31.6871972 C3.96089964,47.0000084 16.3743859,59.4134947 31.6871972,59.4134947 C47.0000084,59.4134947 59.4134947,47.0000084 59.4134947,31.6871972 L63.3743943,31.6871972 C63.3743943,49.1875529 49.1875529,63.3743943 31.6871972,63.3743943 C14.1868414,63.3743943 0,49.1875529 0,31.6871972 C0,14.1868414 14.1868414,0 31.6871972,0 Z" id="Shape" fill="#EA5256"></path>
                    <path d="M31.6871972,7.92179929 L33.4200907,9.90224911 L31.6871972,11.8826989 C20.7494748,11.8826989 11.8826989,20.7494748 11.8826989,31.6871972 C11.8826989,42.6249195 20.7494748,51.4916954 31.6871972,51.4916954 C42.6249195,51.4916954 51.4916954,42.6249195 51.4916954,31.6871972 L55.452595,31.6871972 C55.452595,44.812464 44.812464,55.452595 31.6871972,55.452595 C18.5619303,55.452595 7.92179929,44.812464 7.92179929,31.6871972 C7.92179929,18.5619303 18.5619303,7.92179929 31.6871972,7.92179929 Z" id="Path" fill="#F79369"></path>
                    <path d="M31.6871972,15.8435986 L33.4200907,17.8240484 L31.6871972,19.8044982 C25.1245637,19.8044982 19.8044982,25.1245637 19.8044982,31.6871972 C19.8044982,38.2498306 25.1245637,43.5698961 31.6871972,43.5698961 C38.2498306,43.5698961 43.5698961,38.2498306 43.5698961,31.6871972 L47.5307957,31.6871972 C47.5307957,40.437375 40.437375,47.5307957 31.6871972,47.5307957 C22.9370193,47.5307957 15.8435986,40.437375 15.8435986,31.6871972 C15.8435986,22.9370193 22.9370193,15.8435986 31.6871972,15.8435986 Z" id="Path" fill="#F9D367"></path>
                </g>
            </g>
        </g>
    </g>
</svg>