<?xml version="1.0" encoding="UTF-8"?>
<svg width="204px" height="64px" viewBox="0 0 204 64" version="1.1" xmlns="http://www.w3.org/2000/svg" xmlns:xlink="http://www.w3.org/1999/xlink">
    <!-- Generator: sketchtool 54.1 (76490) - https://sketchapp.com -->
    <title>FAFB1C72-3BBB-4EE3-B52F-BA8A508324E0</title>
    <desc>Created with sketchtool.</desc>
    <g id="Page-1" stroke="none" stroke-width="1" fill="none" fill-rule="evenodd">
        <g id="Components-/-Header-/-Desktop" transform="translate(-53.000000, -40.000000)">
            <g id="Header">
                <g id="Group-2" transform="translate(53.000000, 40.000000)">
                    <g id="Group-4">
                        <path d="M31.6871972,2.13162821e-14 L33.4200907,1.98044982 L31.6871972,3.96089964 C16.3743859,3.96089964 3.96089964,16.3743859 3.96089964,31.6871972 C3.96089964,47.0000084 16.3743859,59.4134947 31.6871972,59.4134947 C47.0000084,59.4134947 59.4134947,47.0000084 59.4134947,31.6871972 L63.3743943,31.6871972 C63.3743943,49.1875529 49.1875529,63.3743943 31.6871972,63.3743943 C14.1868414,63.3743943 2.13162821e-14,49.1875529 2.13162821e-14,31.6871972 C2.13162821e-14,14.1868414 14.1868414,2.13162821e-14 31.6871972,2.13162821e-14 Z" id="Shape" fill="#EA5256"></path>
                        <path d="M31.6871972,7.92179929 L33.4200907,9.90224911 L31.6871972,11.8826989 C20.7494748,11.8826989 11.8826989,20.7494748 11.8826989,31.6871972 C11.8826989,42.6249195 20.7494748,51.4916954 31.6871972,51.4916954 C42.6249195,51.4916954 51.4916954,42.6249195 51.4916954,31.6871972 L55.452595,31.6871972 C55.452595,44.812464 44.812464,55.452595 31.6871972,55.452595 C18.5619303,55.452595 7.92179929,44.812464 7.92179929,31.6871972 C7.92179929,18.5619303 18.5619303,7.92179929 31.6871972,7.92179929 Z" id="Path" fill="#F79369"></path>
                        <path d="M31.6871972,15.8435986 L33.4200907,17.8240484 L31.6871972,19.8044982 C25.1245637,19.8044982 19.8044982,25.1245637 19.8044982,31.6871972 C19.8044982,38.2498306 25.1245637,43.5698961 31.6871972,43.5698961 C38.2498306,43.5698961 43.5698961,38.2498306 43.5698961,31.6871972 L47.5307957,31.6871972 C47.5307957,40.437375 40.437375,47.5307957 31.6871972,47.5307957 C22.9370193,47.5307957 15.8435986,40.437375 15.8435986,31.6871972 C15.8435986,22.9370193 22.9370193,15.8435986 31.6871972,15.8435986 Z" id="Path" fill="#F9D367"></path>
                    </g>
                    <g id="Group-6" transform="translate(87.000000, 18.000000)" fill="#1E1E1E" fill-rule="nonzero">
                        <path d="M12.1040012,1.26 L11.0240012,3.72 C10.317331,3.4799988 9.77400307,3.3200004 9.39400117,3.24 C9.01399927,3.1599996 8.59733677,3.12 8.14400117,3.12 C7.59733177,3.12 7.07400367,3.2933316 6.57400117,3.64 C6.07399867,3.9866684 5.66733607,4.4733302 5.35400117,5.1 C5.04066627,5.7266698 4.88400117,6.439996 4.88400117,7.24 C4.88400117,8.0533374 5.04399957,8.7666636 5.36400117,9.38 C5.68400277,9.9933364 6.10733187,10.4633317 6.63400117,10.79 C7.16067047,11.1166683 7.71066497,11.28 8.28400117,11.28 C9.17733897,11.28 10.0373304,11.0333358 10.8640012,10.54 L12.2440012,13.26 C11.7239986,13.5666682 11.0940049,13.8099991 10.3540012,13.99 C9.61399747,14.1700009 8.89067137,14.26 8.18400117,14.26 C6.74399397,14.26 5.49067317,13.9633363 4.42400117,13.37 C3.35732917,12.7766637 2.54067067,11.9533386 1.97400117,10.9 C1.40733167,9.8466614 1.12400117,8.6333402 1.12400117,7.26 C1.12400117,5.8866598 1.42399817,4.6600054 2.02400117,3.58 C2.62400417,2.4999946 3.45399587,1.6566697 4.51400117,1.05 C5.57400647,0.4433303 6.77066117,0.14 8.10400117,0.14 C8.79733797,0.14 9.50733087,0.239999 10.2340012,0.44 C10.9606715,0.640001 11.5839986,0.9133316 12.1040012,1.26 Z M23.628001,11.14 L23.968001,14 L14.208001,14 L14.208001,0.4 L17.848001,0.4 L17.848001,11.14 L23.628001,11.14 Z M31.9520009,0.12 C33.3920081,0.12 34.6419956,0.4266636 35.7020009,1.04 C36.7620062,1.6533364 37.5753314,2.493328 38.1420009,3.56 C38.7086704,4.626672 38.9920009,5.8133268 38.9920009,7.12 C38.9920009,8.5066736 38.6953372,9.7433279 38.1020009,10.83 C37.5086646,11.9166721 36.6786729,12.7633303 35.6120009,13.37 C34.5453289,13.9766697 33.3253411,14.28 31.9520009,14.28 C30.5386605,14.28 29.3020062,13.9700031 28.2420009,13.35 C27.1819956,12.7299969 26.3653371,11.886672 25.7920009,10.82 C25.2186647,9.753328 24.9320009,8.5666732 24.9320009,7.26 C24.9320009,5.8866598 25.2319979,4.6566721 25.8320009,3.57 C26.4320039,2.4833279 27.2653289,1.6366697 28.3320009,1.03 C29.3986729,0.4233303 30.6053275,0.12 31.9520009,0.12 Z M28.6720009,7.24 C28.6720009,8.4133392 28.961998,9.3733296 29.5420009,10.12 C30.1220038,10.8666704 30.9186625,11.24 31.9320009,11.24 C32.9053391,11.24 33.7019978,10.8833369 34.3220009,10.17 C34.942004,9.4566631 35.2520009,8.4400066 35.2520009,7.12 C35.2520009,5.9599942 34.9553372,5.0100037 34.3620009,4.27 C33.7686646,3.5299963 32.9786725,3.16 31.9920009,3.16 C31.3786645,3.16 30.8220034,3.3299983 30.3220009,3.67 C29.8219984,4.0100017 29.4220024,4.4899969 29.1220009,5.11 C28.8219994,5.7300031 28.6720009,6.439996 28.6720009,7.24 Z M51.3360008,1.26 L50.2560008,3.72 C49.5493306,3.4799988 49.0060027,3.3200004 48.6260008,3.24 C48.2459989,3.1599996 47.8293364,3.12 47.3760008,3.12 C46.8293314,3.12 46.3060033,3.2933316 45.8060008,3.64 C45.3059983,3.9866684 44.8993357,4.4733302 44.5860008,5.1 C44.2726659,5.7266698 44.1160008,6.439996 44.1160008,7.24 C44.1160008,8.0533374 44.2759992,8.7666636 44.5960008,9.38 C44.9160024,9.9933364 45.3393315,10.4633317 45.8660008,10.79 C46.3926701,11.1166683 46.9426646,11.28 47.5160008,11.28 C48.4093386,11.28 49.26933,11.0333358 50.0960008,10.54 L51.4760008,13.26 C50.9559982,13.5666682 50.3260045,13.8099991 49.5860008,13.99 C48.8459971,14.1700009 48.122671,14.26 47.4160008,14.26 C45.9759936,14.26 44.7226728,13.9633363 43.6560008,13.37 C42.5893288,12.7766637 41.7726703,11.9533386 41.2060008,10.9 C40.6393313,9.8466614 40.3560008,8.6333402 40.3560008,7.26 C40.3560008,5.8866598 40.6559978,4.6600054 41.2560008,3.58 C41.8560038,2.4999946 42.6859955,1.6566697 43.7460008,1.05 C44.8060061,0.4433303 46.0026608,0.14 47.3360008,0.14 C48.0293376,0.14 48.7393305,0.239999 49.4660008,0.44 C50.1926711,0.640001 50.8159982,0.9133316 51.3360008,1.26 Z M61.6200006,14 L58.1400006,8.92 L57.0800006,9.92 L57.0800006,14 L53.4400006,14 L53.4400006,0.4 L57.0800006,0.4 L57.0800006,5.12 L62.5400006,0.1 L65.3600006,2.14 L60.7400006,6.46 L66.2400006,14 L61.6200006,14 Z M86.4040005,0.4 L82.5040005,14 L78.8640005,14 L76.6240005,5.46 L74.5240005,14 L70.8840005,14 L66.8040005,0.56 L70.3840005,0.2 L72.7640005,9.64 L74.8040005,0.4 L78.4240005,0.4 L80.7440005,9.64 L82.7840005,0.4 L86.4040005,0.4 Z M92.0080004,14 L88.3680004,14 L88.3680004,0.4 L92.0080004,0.4 L92.0080004,14 Z M94.4320003,13.16 L95.6320003,10.42 C95.9920021,10.6333344 96.4886638,10.8299991 97.1220003,11.01 C97.7553368,11.1900009 98.3119979,11.28 98.7920003,11.28 C99.3253363,11.28 99.7519987,11.1700011 100.072,10.95 C100.392002,10.7299989 100.552,10.486668 100.552,10.22 C100.552,10.0466658 100.435335,9.8766675 100.202,9.71 C99.9686658,9.5433325 99.5920029,9.3066682 99.0720003,9 L98.4520003,8.64 C97.5453291,8.106664 96.8386695,7.6633351 96.3320003,7.31 C95.8253311,6.9566649 95.3720023,6.5000028 94.9720003,5.94 C94.5719983,5.3799972 94.3720003,4.7466702 94.3720003,4.04 C94.3720003,3.2933296 94.5819982,2.6233363 95.0020003,2.03 C95.4220024,1.4366637 96.0119965,0.973335 96.7720003,0.64 C97.5320041,0.306665 98.4186619,0.14 99.4320003,0.14 C100.125337,0.14 100.83533,0.239999 101.562,0.44 C102.288671,0.640001 102.911998,0.9133316 103.432,1.26 L102.352,3.72 C101.64533,3.4799988 101.102002,3.3200004 100.722,3.24 C100.341998,3.1599996 99.9253359,3.12 99.4720003,3.12 C99.0719983,3.12 98.7486682,3.2133324 98.5020003,3.4 C98.2553324,3.5866676 98.1320003,3.813332 98.1320003,4.08 C98.1320003,4.280001 98.2353326,4.4566659 98.4420003,4.61 C98.648668,4.7633341 98.9919979,4.9666654 99.4720003,5.22 L100.192,5.62 C101.032004,6.1000024 101.731997,6.5433313 102.292,6.95 C102.852003,7.3566687 103.328665,7.8366639 103.722,8.39 C104.115336,8.9433361 104.312,9.5666632 104.312,10.26 C104.312,11.0333372 104.092002,11.719997 103.652,12.32 C103.211998,12.920003 102.582004,13.3933316 101.762,13.74 C100.941996,14.0866684 99.9853391,14.26 98.8920003,14.26 C98.1853301,14.26 97.395338,14.1533344 96.5220003,13.94 C95.6486626,13.7266656 94.9520029,13.4666682 94.4320003,13.16 Z M116.436,14 L106.476,14 L106.476,0.4 L115.496,0.4 L115.836,3.26 L110.116,3.26 L110.116,5.74 L114.296,5.74 L114.636,8.6 L110.116,8.6 L110.116,11.14 L116.096,11.14 L116.436,14 Z" id="CLOCKWISE"></path>
                        <g id="Group-3" transform="translate(0.000000, 16.000000)">
                            <path d="M7.61170375,13.1508789 C7.61170375,14.0932664 7.2699103,14.8281224 6.58631313,15.3554688 C5.90271596,15.8828151 4.97499086,16.1464844 3.80311,16.1464844 C2.53357241,16.1464844 1.55701967,15.9829118 0.873422503,15.6557617 L0.873422503,14.4545898 C1.31287783,14.6401376 1.79138867,14.7866206 2.30896938,14.894043 C2.82655009,15.0014654 3.33924028,15.0551758 3.84705532,15.0551758 C4.67713759,15.0551758 5.30213134,14.8977067 5.72205532,14.5827637 C6.14197929,14.2678207 6.35193813,13.8295927 6.35193813,13.2680664 C6.35193813,12.8969708 6.27747598,12.5930188 6.12854946,12.3562012 C5.97962293,12.1193836 5.73060198,11.9008799 5.38147914,11.7006836 C5.0323563,11.5004873 4.50135576,11.2734388 3.78846157,11.0195312 C2.79236284,10.6630842 2.08070003,10.2407251 1.6534518,9.75244141 C1.22620357,9.26415771 1.01258266,8.62695706 1.01258266,7.84082031 C1.01258266,7.01562087 1.32263815,6.35888916 1.94275844,5.87060547 C2.56287873,5.38232178 3.38318303,5.13818359 4.40369594,5.13818359 C5.46815439,5.13818359 6.4471485,5.33349414 7.34070766,5.72412109 L6.95252407,6.80810547 C6.06873058,6.43700986 5.20936418,6.25146484 4.37439907,6.25146484 C3.71521608,6.25146484 3.20008452,6.39306499 2.82898891,6.67626953 C2.4578933,6.95947407 2.27234828,7.35253655 2.27234828,7.85546875 C2.27234828,8.22656436 2.34070698,8.53051639 2.47742641,8.76733398 C2.61414584,9.00415157 2.84485643,9.22143456 3.16956508,9.41918945 C3.49427374,9.61694435 3.99109494,9.83544802 4.6600436,10.074707 C5.78309609,10.4750997 6.55579344,10.9047829 6.97815883,11.3637695 C7.40052422,11.8227562 7.61170375,12.4184534 7.61170375,13.1508789 Z M16.6702505,11.9790039 C16.6702505,13.2876042 16.340664,14.3093225 15.681481,15.0441895 C15.022298,15.7790564 14.1116626,16.1464844 12.9495474,16.1464844 C12.2317704,16.1464844 11.5945697,15.978029 11.0379263,15.6411133 C10.4812829,15.3041975 10.0515997,14.8208039 9.74886383,14.190918 C9.44612794,13.561032 9.29476227,12.8237347 9.29476227,11.9790039 C9.29476227,10.6704036 9.62190743,9.6511267 10.2762076,8.92114258 C10.9305077,8.19115846 11.8387018,7.82617188 13.000817,7.82617188 C14.1238694,7.82617188 15.0161945,8.1997033 15.6778189,8.94677734 C16.3394433,9.69385139 16.6702505,10.7045835 16.6702505,11.9790039 Z M10.5545279,11.9790039 C10.5545279,13.0043997 10.759604,13.7856418 11.1697623,14.3227539 C11.5799206,14.859866 12.1829419,15.128418 12.9788443,15.128418 C13.7747467,15.128418 14.3789887,14.8610867 14.7915884,14.326416 C15.2041882,13.7917454 15.4104849,13.0092825 15.4104849,11.9790039 C15.4104849,10.958491 15.2041882,10.1833523 14.7915884,9.65356445 C14.3789887,9.12377665 13.769864,8.85888672 12.9641959,8.85888672 C12.1682934,8.85888672 11.5677135,9.12011458 11.162438,9.64257812 C10.7571626,10.1650417 10.5545279,10.9438425 10.5545279,11.9790039 Z M22.5427622,8.91748047 L20.4993052,8.91748047 L20.4993052,16 L19.2834848,16 L19.2834848,8.91748047 L17.847938,8.91748047 L17.847938,8.36816406 L19.2834848,7.92871094 L19.2834848,7.48193359 C19.2834848,5.50926748 20.1452926,4.52294922 21.8689341,4.52294922 C22.2937409,4.52294922 22.7917828,4.60839758 23.3630747,4.77929688 L23.0481333,5.75341797 C22.5793809,5.60205002 22.1789943,5.52636719 21.8469614,5.52636719 C21.3879747,5.52636719 21.0486227,5.67895355 20.828895,5.98413086 C20.6091673,6.28930817 20.4993052,6.77880522 20.4993052,7.45263672 L20.4993052,7.97265625 L22.5427622,7.97265625 L22.5427622,8.91748047 Z M26.7233793,15.1430664 C26.9382241,15.1430664 27.1457416,15.1271974 27.3459379,15.095459 C27.5461342,15.0637205 27.704824,15.0307619 27.8220121,14.996582 L27.8220121,15.9267578 C27.6901755,15.9902347 27.4960857,16.0427244 27.2397367,16.0842285 C26.9833878,16.1257326 26.7526772,16.1464844 26.547598,16.1464844 C24.9948559,16.1464844 24.2184965,15.3286215 24.2184965,13.6928711 L24.2184965,8.91748047 L23.0685941,8.91748047 L23.0685941,8.33154297 L24.2184965,7.82617188 L24.7311918,6.11230469 L25.4343168,6.11230469 L25.4343168,7.97265625 L27.7634184,7.97265625 L27.7634184,8.91748047 L25.4343168,8.91748047 L25.4343168,13.6416016 C25.4343168,14.1250024 25.5490617,14.4960925 25.7785551,14.7548828 C26.0080484,15.0136732 26.3229867,15.1430664 26.7233793,15.1430664 Z M36.1041917,16 L34.6320238,11.2905273 C34.5392499,11.00244 34.3659117,10.3481496 34.1120042,9.32763672 L34.0534105,9.32763672 C33.858097,10.1821332 33.6872003,10.8413063 33.5407152,11.3051758 L32.0246019,16 L30.6183519,16 L28.4284105,7.97265625 L29.7028245,7.97265625 C30.2204052,9.9892679 30.6146884,11.5248971 30.8856859,12.5795898 C31.1566833,13.6342826 31.3117111,14.3447247 31.3507738,14.7109375 L31.4093675,14.7109375 C31.4630787,14.4326158 31.5497478,14.072512 31.6693773,13.6306152 C31.7890068,13.1887185 31.8927655,12.8383802 31.9806566,12.5795898 L33.4528245,7.97265625 L34.7711839,7.97265625 L36.2067308,12.5795898 C36.4801697,13.4194378 36.6657147,14.1249971 36.7633714,14.6962891 L36.8219652,14.6962891 C36.8414965,14.5205069 36.8939862,14.2495135 36.9794359,13.8833008 C37.0648855,13.517088 37.5739136,11.5468929 38.5065355,7.97265625 L39.7663011,7.97265625 L37.5470628,16 L36.1041917,16 Z M46.2760198,16 L46.0343205,14.8574219 L45.9757268,14.8574219 C45.5753342,15.3603541 45.1761682,15.7009268 44.778217,15.8791504 C44.3802658,16.0573739 43.8834446,16.1464844 43.2877385,16.1464844 C42.4918361,16.1464844 41.868063,15.9414083 41.4164006,15.53125 C40.9647382,15.1210917 40.7389104,14.5376014 40.7389104,13.7807617 C40.7389104,12.1596599 42.0352841,11.310059 44.6280705,11.2319336 L45.9903752,11.1879883 L45.9903752,10.6899414 C45.9903752,10.0600554 45.8548785,9.5949722 45.5838811,9.29467773 C45.3128836,8.99438326 44.8795384,8.84423828 44.2838323,8.84423828 C43.6148836,8.84423828 42.8580552,9.04931436 42.0133245,9.45947266 L41.6397893,8.52929688 C42.0352991,8.31445205 42.4686444,8.1459967 42.9398381,8.02392578 C43.4110319,7.90185486 43.8834393,7.84082031 44.3570745,7.84082031 C45.3141105,7.84082031 46.0233319,8.05322053 46.48476,8.47802734 C46.9461881,8.90283416 47.1768987,9.58397969 47.1768987,10.5214844 L47.1768987,16 L46.2760198,16 Z M43.5294377,15.1430664 C44.2862775,15.1430664 44.8807539,14.935549 45.312885,14.5205078 C45.7450161,14.1054667 45.9610784,13.5244178 45.9610784,12.7773438 L45.9610784,12.0522461 L44.745258,12.1035156 C43.7784563,12.1376955 43.0814418,12.2878405 42.6541936,12.5539551 C42.2269454,12.8200697 42.0133245,13.2338839 42.0133245,13.7954102 C42.0133245,14.2348655 42.1463798,14.5693348 42.4124944,14.7988281 C42.678609,15.0283215 43.0509197,15.1430664 43.5294377,15.1430664 Z M53.4668908,7.82617188 C53.8233379,7.82617188 54.1431589,7.85546846 54.4263634,7.9140625 L54.2579064,9.04199219 C53.9258735,8.96874963 53.6329077,8.93212891 53.3790002,8.93212891 C52.7295828,8.93212891 52.1741685,9.19579814 51.7127404,9.72314453 C51.2513123,10.2504909 51.0206017,10.9072226 51.0206017,11.6933594 L51.0206017,16 L49.8047814,16 L49.8047814,7.97265625 L50.8081994,7.97265625 L50.9473595,9.45947266 L51.0059533,9.45947266 C51.3038063,8.93700911 51.6626895,8.5341811 52.0826134,8.25097656 C52.5025374,7.96777202 52.9639586,7.82617188 53.4668908,7.82617188 Z M59.1416485,16.1464844 C57.9551191,16.1464844 57.0188492,15.7851599 56.3328106,15.0625 C55.646772,14.3398401 55.3037579,13.3364322 55.3037579,12.0522461 C55.3037579,10.7582943 55.6223582,9.73047256 56.2595684,8.96875 C56.8967787,8.20702744 57.752483,7.82617188 58.8267071,7.82617188 C59.8325715,7.82617188 60.628462,8.15697911 61.2144024,8.81860352 C61.8003429,9.48022792 62.0933087,10.3530219 62.0933087,11.4370117 L62.0933087,12.2060547 L56.5635235,12.2060547 C56.5879377,13.1484422 56.8259724,13.8637671 57.2776348,14.3520508 C57.7292973,14.8403345 58.3652772,15.0844727 59.1855938,15.0844727 C60.049856,15.0844727 60.9043396,14.9038104 61.7490704,14.5424805 L61.7490704,15.6264648 C61.3193807,15.8120126 60.9128907,15.945068 60.529588,16.0256348 C60.1462853,16.1062016 59.6836434,16.1464844 59.1416485,16.1464844 Z M58.8120587,8.84423828 C58.1675242,8.84423828 57.6536133,9.05419712 57.2703106,9.47412109 C56.8870079,9.89404507 56.6611801,10.4750939 56.5928204,11.2172852 L60.7895977,11.2172852 C60.7895977,10.4506798 60.618701,9.86352743 60.2769024,9.45581055 C59.9351038,9.04809366 59.4468275,8.84423828 58.8120587,8.84423828 Z" id="Software"></path>
                        </g>
                    </g>
                </g>
            </g>
        </g>
    </g>
</svg>