<?xml version="1.0" encoding="UTF-8"?>
<svg width="44px" height="44px" viewBox="0 0 44 44" version="1.1" xmlns="http://www.w3.org/2000/svg" xmlns:xlink="http://www.w3.org/1999/xlink">
    <!-- Generator: sketchtool 54.1 (76490) - https://sketchapp.com -->
    <title>A9F4CEA3-E9DF-4090-B52E-5AED661ED996</title>
    <desc>Created with sketchtool.</desc>
    <g id="Page-1" stroke="none" stroke-width="1" fill="none" fill-rule="evenodd">
        <g id="Pop-Up-for-Tablet" transform="translate(-657.000000, -136.000000)">
            <g id="Close-form-button" transform="translate(657.000000, 136.000000)">
                <path d="M0,0 L44,0 L44,44 L22,44 C9.8497355,44 1.48797825e-15,34.1502645 0,22 L0,0 Z" id="Rectangle" fill="#D6D6D6"></path>
                <path d="M20.1538462,20.1538462 L20.1538462,15.5384615 C20.1538462,14.5188589 20.9803974,13.6923077 22,13.6923077 C23.0196026,13.6923077 23.8461538,14.5188589 23.8461538,15.5384615 L23.8461538,20.1538462 L28.4615385,20.1538462 C29.4811411,20.1538462 30.3076923,20.9803974 30.3076923,22 C30.3076923,23.0196026 29.4811411,23.8461538 28.4615385,23.8461538 L23.8461538,23.8461538 L23.8461538,28.4615385 C23.8461538,29.4811411 23.0196026,30.3076923 22,30.3076923 C20.9803974,30.3076923 20.1538462,29.4811411 20.1538462,28.4615385 L20.1538462,23.8461538 L15.5384615,23.8461538 C14.5188589,23.8461538 13.6923077,23.0196026 13.6923077,22 C13.6923077,20.9803974 14.5188589,20.1538462 15.5384615,20.1538462 L20.1538462,20.1538462 Z" id="Combined-Shape" fill="#1E1E1E" transform="translate(22.000000, 22.000000) rotate(-45.000000) translate(-22.000000, -22.000000) "></path>
            </g>
        </g>
    </g>
</svg>