<?xml version="1.0" encoding="UTF-8"?>
<svg width="127px" height="226px" viewBox="0 0 127 226" version="1.1" xmlns="http://www.w3.org/2000/svg" xmlns:xlink="http://www.w3.org/1999/xlink">
    <!-- Generator: sketchtool 54.1 (76490) - https://sketchapp.com -->
    <title>52E35441-5703-456C-89FB-2E6CE1B29062</title>
    <desc>Created with sketchtool.</desc>
    <g id="Page-1" stroke="none" stroke-width="1" fill="none" fill-rule="evenodd" opacity="0.149999991">
        <g id="Logistics-tablet-" transform="translate(0.000000, -38.000000)" fill="#D8D8D8">
            <g id="Decorative-routes-thing-top-small-header" transform="translate(-99.000000, 38.000000)">
                <g id="Group">
                    <g id="Group-19">
                        <g id="Group-15" transform="translate(0.000000, 130.709688)">
                            <g id="Group-14">
                                <path d="M130.709688,47.5307957 C130.709688,37.6868456 122.72959,29.7067473 112.88564,29.7067473 C103.04169,29.7067473 95.0615915,37.6868456 95.0615915,47.5307957 C95.0615915,73.7813294 73.7813294,95.0615915 47.5307957,95.0615915 C21.2802621,95.0615915 0,73.7813294 0,47.5307957 C0,21.2802621 21.2802621,0 47.5307957,0 L47.5307957,5.94134947 C24.5615788,5.94134947 5.94134947,24.5615788 5.94134947,47.5307957 C5.94134947,70.5000126 24.5615788,89.120242 47.5307957,89.120242 C70.5000126,89.120242 89.120242,70.5000126 89.120242,47.5307957 C89.120242,34.4055289 99.760373,23.7653979 112.88564,23.7653979 C126.010907,23.7653979 136.651038,34.4055289 136.651038,47.5307957 C136.651038,70.5000126 155.271267,89.120242 178.240484,89.120242 C201.209701,89.120242 219.82993,70.5000126 219.82993,47.5307957 C219.82993,24.5615788 201.209701,5.94134947 178.240484,5.94134947 L178.240484,0 C204.491018,0 225.77128,21.2802621 225.77128,47.5307957 C225.77128,73.7813294 204.491018,95.0615915 178.240484,95.0615915 C151.98995,95.0615915 130.709688,73.7813294 130.709688,47.5307957 Z" id="Shape" opacity="0.5"></path>
                                <path d="M154.475086,47.5307957 C154.475086,24.5615788 135.854857,5.94134947 112.88564,5.94134947 C89.9164229,5.94134947 71.2961936,24.5615788 71.2961936,47.5307957 C71.2961936,60.6560625 60.6560625,71.2961936 47.5307957,71.2961936 C34.4055289,71.2961936 23.7653979,60.6560625 23.7653979,47.5307957 C23.7653979,34.4055289 34.4055289,23.7653979 47.5307957,23.7653979 L47.5307957,29.7067473 C37.6868456,29.7067473 29.7067473,37.6868456 29.7067473,47.5307957 C29.7067473,57.3747458 37.6868456,65.3548441 47.5307957,65.3548441 C57.3747458,65.3548441 65.3548441,57.3747458 65.3548441,47.5307957 C65.3548441,21.2802621 86.6351062,0 112.88564,0 C139.136173,0 160.416436,21.2802621 160.416436,47.5307957 C160.416436,57.3747458 168.396534,65.3548441 178.240484,65.3548441 C188.084434,65.3548441 196.064532,57.3747458 196.064532,47.5307957 C196.064532,37.6868456 188.084434,29.7067473 178.240484,29.7067473 L178.240484,23.7653979 C191.365751,23.7653979 202.005882,34.4055289 202.005882,47.5307957 C202.005882,60.6560625 191.365751,71.2961936 178.240484,71.2961936 C165.115217,71.2961936 154.475086,60.6560625 154.475086,47.5307957 Z" id="Path"></path>
                                <path d="M142.592387,47.5307957 C142.592387,31.1242122 129.292223,17.8240484 112.88564,17.8240484 C96.4790563,17.8240484 83.1788925,31.1242122 83.1788925,47.5307957 C83.1788925,67.2186959 67.2186959,83.1788925 47.5307957,83.1788925 C27.8428955,83.1788925 11.8826989,67.2186959 11.8826989,47.5307957 C11.8826989,27.8428955 27.8428955,11.8826989 47.5307957,11.8826989 L47.5307957,17.8240484 C31.1242122,17.8240484 17.8240484,31.1242122 17.8240484,47.5307957 C17.8240484,63.9373792 31.1242122,77.2375431 47.5307957,77.2375431 C63.9373792,77.2375431 77.2375431,63.9373792 77.2375431,47.5307957 C77.2375431,27.8428955 93.1977396,11.8826989 112.88564,11.8826989 C132.57354,11.8826989 148.533737,27.8428955 148.533737,47.5307957 C148.533737,63.9373792 161.8339,77.2375431 178.240484,77.2375431 C194.647067,77.2375431 207.947231,63.9373792 207.947231,47.5307957 C207.947231,31.1242122 194.647067,17.8240484 178.240484,17.8240484 L178.240484,11.8826989 C197.928384,11.8826989 213.888581,27.8428955 213.888581,47.5307957 C213.888581,67.2186959 197.928384,83.1788925 178.240484,83.1788925 C158.552584,83.1788925 142.592387,67.2186959 142.592387,47.5307957 Z" id="Path" opacity="0.75"></path>
                            </g>
                        </g>
                        <g id="Group-15" transform="translate(112.885640, 47.530796) rotate(-180.000000) translate(-112.885640, -47.530796) ">
                            <g id="Group-14">
                                <path d="M130.709688,47.5307957 C130.709688,37.6868456 122.72959,29.7067473 112.88564,29.7067473 C103.04169,29.7067473 95.0615915,37.6868456 95.0615915,47.5307957 C95.0615915,73.7813294 73.7813294,95.0615915 47.5307957,95.0615915 C21.2802621,95.0615915 0,73.7813294 0,47.5307957 C0,21.2802621 21.2802621,0 47.5307957,0 L47.5307957,5.94134947 C24.5615788,5.94134947 5.94134947,24.5615788 5.94134947,47.5307957 C5.94134947,70.5000126 24.5615788,89.120242 47.5307957,89.120242 C70.5000126,89.120242 89.120242,70.5000126 89.120242,47.5307957 C89.120242,34.4055289 99.760373,23.7653979 112.88564,23.7653979 C126.010907,23.7653979 136.651038,34.4055289 136.651038,47.5307957 C136.651038,70.5000126 155.271267,89.120242 178.240484,89.120242 C201.209701,89.120242 219.82993,70.5000126 219.82993,47.5307957 C219.82993,24.5615788 201.209701,5.94134947 178.240484,5.94134947 L178.240484,0 C204.491018,0 225.77128,21.2802621 225.77128,47.5307957 C225.77128,73.7813294 204.491018,95.0615915 178.240484,95.0615915 C151.98995,95.0615915 130.709688,73.7813294 130.709688,47.5307957 Z" id="Shape" opacity="0.5"></path>
                                <path d="M154.475086,47.5307957 C154.475086,24.5615788 135.854857,5.94134947 112.88564,5.94134947 C89.9164229,5.94134947 71.2961936,24.5615788 71.2961936,47.5307957 C71.2961936,60.6560625 60.6560625,71.2961936 47.5307957,71.2961936 C34.4055289,71.2961936 23.7653979,60.6560625 23.7653979,47.5307957 C23.7653979,34.4055289 34.4055289,23.7653979 47.5307957,23.7653979 L47.5307957,29.7067473 C37.6868456,29.7067473 29.7067473,37.6868456 29.7067473,47.5307957 C29.7067473,57.3747458 37.6868456,65.3548441 47.5307957,65.3548441 C57.3747458,65.3548441 65.3548441,57.3747458 65.3548441,47.5307957 C65.3548441,21.2802621 86.6351062,0 112.88564,0 C139.136173,0 160.416436,21.2802621 160.416436,47.5307957 C160.416436,57.3747458 168.396534,65.3548441 178.240484,65.3548441 C188.084434,65.3548441 196.064532,57.3747458 196.064532,47.5307957 C196.064532,37.6868456 188.084434,29.7067473 178.240484,29.7067473 L178.240484,23.7653979 C191.365751,23.7653979 202.005882,34.4055289 202.005882,47.5307957 C202.005882,60.6560625 191.365751,71.2961936 178.240484,71.2961936 C165.115217,71.2961936 154.475086,60.6560625 154.475086,47.5307957 Z" id="Path"></path>
                                <path d="M142.592387,47.5307957 C142.592387,31.1242122 129.292223,17.8240484 112.88564,17.8240484 C96.4790563,17.8240484 83.1788925,31.1242122 83.1788925,47.5307957 C83.1788925,67.2186959 67.2186959,83.1788925 47.5307957,83.1788925 C27.8428955,83.1788925 11.8826989,67.2186959 11.8826989,47.5307957 C11.8826989,27.8428955 27.8428955,11.8826989 47.5307957,11.8826989 L47.5307957,17.8240484 C31.1242122,17.8240484 17.8240484,31.1242122 17.8240484,47.5307957 C17.8240484,63.9373792 31.1242122,77.2375431 47.5307957,77.2375431 C63.9373792,77.2375431 77.2375431,63.9373792 77.2375431,47.5307957 C77.2375431,27.8428955 93.1977396,11.8826989 112.88564,11.8826989 C132.57354,11.8826989 148.533737,27.8428955 148.533737,47.5307957 C148.533737,63.9373792 161.8339,77.2375431 178.240484,77.2375431 C194.647067,77.2375431 207.947231,63.9373792 207.947231,47.5307957 C207.947231,31.1242122 194.647067,17.8240484 178.240484,17.8240484 L178.240484,11.8826989 C197.928384,11.8826989 213.888581,27.8428955 213.888581,47.5307957 C213.888581,67.2186959 197.928384,83.1788925 178.240484,83.1788925 C158.552584,83.1788925 142.592387,67.2186959 142.592387,47.5307957 Z" id="Path" opacity="0.75"></path>
                            </g>
                        </g>
                        <g id="Group-15" transform="translate(178.240484, 112.885640) scale(-1, 1) rotate(-270.000000) translate(-178.240484, -112.885640) translate(65.354844, 65.354844)">
                            <g id="Group-14">
                                <path d="M130.709688,47.5307957 C130.709688,37.6868456 122.72959,29.7067473 112.88564,29.7067473 C103.04169,29.7067473 95.0615915,37.6868456 95.0615915,47.5307957 C95.0615915,73.7813294 73.7813294,95.0615915 47.5307957,95.0615915 C21.2802621,95.0615915 0,73.7813294 0,47.5307957 C0,21.2802621 21.2802621,0 47.5307957,0 L47.5307957,5.94134947 C24.5615788,5.94134947 5.94134947,24.5615788 5.94134947,47.5307957 C5.94134947,70.5000126 24.5615788,89.120242 47.5307957,89.120242 C70.5000126,89.120242 89.120242,70.5000126 89.120242,47.5307957 C89.120242,34.4055289 99.760373,23.7653979 112.88564,23.7653979 C126.010907,23.7653979 136.651038,34.4055289 136.651038,47.5307957 C136.651038,70.5000126 155.271267,89.120242 178.240484,89.120242 C201.209701,89.120242 219.82993,70.5000126 219.82993,47.5307957 C219.82993,24.5615788 201.209701,5.94134947 178.240484,5.94134947 L178.240484,0 C204.491018,0 225.77128,21.2802621 225.77128,47.5307957 C225.77128,73.7813294 204.491018,95.0615915 178.240484,95.0615915 C151.98995,95.0615915 130.709688,73.7813294 130.709688,47.5307957 Z" id="Shape" opacity="0.5"></path>
                                <path d="M154.475086,47.5307957 C154.475086,24.5615788 135.854857,5.94134947 112.88564,5.94134947 C89.9164229,5.94134947 71.2961936,24.5615788 71.2961936,47.5307957 C71.2961936,60.6560625 60.6560625,71.2961936 47.5307957,71.2961936 C34.4055289,71.2961936 23.7653979,60.6560625 23.7653979,47.5307957 C23.7653979,34.4055289 34.4055289,23.7653979 47.5307957,23.7653979 L47.5307957,29.7067473 C37.6868456,29.7067473 29.7067473,37.6868456 29.7067473,47.5307957 C29.7067473,57.3747458 37.6868456,65.3548441 47.5307957,65.3548441 C57.3747458,65.3548441 65.3548441,57.3747458 65.3548441,47.5307957 C65.3548441,21.2802621 86.6351062,0 112.88564,0 C139.136173,0 160.416436,21.2802621 160.416436,47.5307957 C160.416436,57.3747458 168.396534,65.3548441 178.240484,65.3548441 C188.084434,65.3548441 196.064532,57.3747458 196.064532,47.5307957 C196.064532,37.6868456 188.084434,29.7067473 178.240484,29.7067473 L178.240484,23.7653979 C191.365751,23.7653979 202.005882,34.4055289 202.005882,47.5307957 C202.005882,60.6560625 191.365751,71.2961936 178.240484,71.2961936 C165.115217,71.2961936 154.475086,60.6560625 154.475086,47.5307957 Z" id="Path"></path>
                                <path d="M142.592387,47.5307957 C142.592387,31.1242122 129.292223,17.8240484 112.88564,17.8240484 C96.4790563,17.8240484 83.1788925,31.1242122 83.1788925,47.5307957 C83.1788925,67.2186959 67.2186959,83.1788925 47.5307957,83.1788925 C27.8428955,83.1788925 11.8826989,67.2186959 11.8826989,47.5307957 C11.8826989,27.8428955 27.8428955,11.8826989 47.5307957,11.8826989 L47.5307957,17.8240484 C31.1242122,17.8240484 17.8240484,31.1242122 17.8240484,47.5307957 C17.8240484,63.9373792 31.1242122,77.2375431 47.5307957,77.2375431 C63.9373792,77.2375431 77.2375431,63.9373792 77.2375431,47.5307957 C77.2375431,27.8428955 93.1977396,11.8826989 112.88564,11.8826989 C132.57354,11.8826989 148.533737,27.8428955 148.533737,47.5307957 C148.533737,63.9373792 161.8339,77.2375431 178.240484,77.2375431 C194.647067,77.2375431 207.947231,63.9373792 207.947231,47.5307957 C207.947231,31.1242122 194.647067,17.8240484 178.240484,17.8240484 L178.240484,11.8826989 C197.928384,11.8826989 213.888581,27.8428955 213.888581,47.5307957 C213.888581,67.2186959 197.928384,83.1788925 178.240484,83.1788925 C158.552584,83.1788925 142.592387,67.2186959 142.592387,47.5307957 Z" id="Path" opacity="0.75"></path>
                            </g>
                        </g>
                    </g>
                </g>
            </g>
        </g>
    </g>
</svg>