<?xml version="1.0" encoding="UTF-8"?>
<svg width="578px" height="960px" viewBox="0 0 578 960" version="1.1" xmlns="http://www.w3.org/2000/svg" xmlns:xlink="http://www.w3.org/1999/xlink">
    <!-- Generator: sketchtool 54.1 (76490) - https://sketchapp.com -->
    <title>6523673F-38AA-4D33-A2AB-5ABC1A4F17C3</title>
    <desc>Created with sketchtool.</desc>
    <g id="Page-1" stroke="none" stroke-width="1" fill="none" fill-rule="evenodd">
        <g id="Logistics-tablet-" transform="translate(0.000000, -1995.000000)" fill="#F3F3F3">
            <g id="Group" transform="translate(274.000000, 2475.000000) rotate(-270.000000) translate(-274.000000, -2475.000000) translate(-206.000000, 2171.000000)">
                <path d="M304,176 L304,192 C242.144108,192 192,242.144108 192,304 C192,365.855892 242.144108,416 304,416 C365.855892,416 416,365.855892 416,304 L432,304 C432,374.692448 374.692448,432 304,432 C233.307552,432 176,374.692448 176,304 C176,233.307552 233.307552,176 304,176 Z M304,208 L304,224 C259.81722,224 224,259.81722 224,304 C224,348.18278 259.81722,384 304,384 C348.18278,384 384,348.18278 384,304 L400,304 C400,357.019336 357.019336,400 304,400 C250.980664,400 208,357.019336 208,304 C208,250.980664 250.980664,208 304,208 Z M304,240 L304,256 C277.490332,256 256,277.490332 256,304 C256,330.509668 277.490332,352 304,352 C330.509668,352 352,330.509668 352,304 L368,304 C368,339.346224 339.346224,368 304,368 C268.653776,368 240,339.346224 240,304 C240,268.653776 268.653776,240 304,240 Z" id="Combined-Shape"></path>
                <path d="M480,432 L480,416 L480,432 Z M592,304 C592,242.144108 541.855892,192 480,192 C418.144108,192 368,242.144108 368,304 L352,304 C352,233.307552 409.307552,176 480,176 C550.692448,176 608,233.307552 608,304 L592,304 Z M480,400 L480,384 L480,400 Z M560,304 C560,259.81722 524.18278,224 480,224 C435.81722,224 400,259.81722 400,304 L384,304 C384,250.980664 426.980664,208 480,208 C533.019336,208 576,250.980664 576,304 L560,304 Z M480,368 L480,352 L480,368 Z M528,304 C528,277.490332 506.509668,256 480,256 C453.490332,256 432,277.490332 432,304 L416,304 C416,268.653776 444.653776,240 480,240 C515.346224,240 544,268.653776 544,304 L528,304 Z" id="Shape"></path>
                <path d="M480,432 L480,416 L480,432 Z M592,304 C592,242.144108 541.855892,192 480,192 C418.144108,192 368,242.144108 368,304 L352,304 C352,233.307552 409.307552,176 480,176 C550.692448,176 608,233.307552 608,304 L592,304 Z M480,400 L480,384 L480,400 Z M560,304 C560,259.81722 524.18278,224 480,224 C435.81722,224 400,259.81722 400,304 L384,304 C384,250.980664 426.980664,208 480,208 C533.019336,208 576,250.980664 576,304 L560,304 Z M480,368 L480,352 L480,368 Z M528,304 C528,277.490332 506.509668,256 480,256 C453.490332,256 432,277.490332 432,304 L416,304 C416,268.653776 444.653776,240 480,240 C515.346224,240 544,268.653776 544,304 L528,304 Z" id="Shape" transform="translate(480.000000, 304.000000) rotate(-180.000000) translate(-480.000000, -304.000000) "></path>
                <path d="M656,176 L656,192 C594.144108,192 544,242.144108 544,304 C544,365.855892 594.144108,416 656,416 C717.855892,416 768,365.855892 768,304 L784,304 C784,374.692448 726.692448,432 656,432 C585.307552,432 528,374.692448 528,304 C528,233.307552 585.307552,176 656,176 Z M656,208 L656,224 C611.81722,224 576,259.81722 576,304 C576,348.18278 611.81722,384 656,384 C700.18278,384 736,348.18278 736,304 L752,304 C752,357.019336 709.019336,400 656,400 C602.980664,400 560,357.019336 560,304 C560,250.980664 602.980664,208 656,208 Z M656,240 L656,256 C629.490332,256 608,277.490332 608,304 C608,330.509668 629.490332,352 656,352 C682.509668,352 704,330.509668 704,304 L720,304 C720,339.346224 691.346224,368 656,368 C620.653776,368 592,339.346224 592,304 C592,268.653776 620.653776,240 656,240 Z" id="Combined-Shape" transform="translate(656.000000, 304.000000) scale(1, -1) rotate(-180.000000) translate(-656.000000, -304.000000) "></path>
                <path d="M656,432 L656,416 L656,432 Z M768,304 C768,242.144108 717.855892,192 656,192 C594.144108,192 544,242.144108 544,304 L528,304 C528,233.307552 585.307552,176 656,176 C726.692448,176 784,233.307552 784,304 L768,304 Z M656,400 L656,384 L656,400 Z M736,304 C736,259.81722 700.18278,224 656,224 C611.81722,224 576,259.81722 576,304 L560,304 C560,250.980664 602.980664,208 656,208 C709.019336,208 752,250.980664 752,304 L736,304 Z M656,368 L656,352 L656,368 Z M704,304 C704,277.490332 682.509668,256 656,256 C629.490332,256 608,277.490332 608,304 L592,304 C592,268.653776 620.653776,240 656,240 C691.346224,240 720,268.653776 720,304 L704,304 Z" id="Shape" transform="translate(656.000000, 304.000000) rotate(-90.000000) translate(-656.000000, -304.000000) "></path>
                <path d="M304,432 L304,416 L304,432 Z M416,304 C416,242.144108 365.855892,192 304,192 C242.144108,192 192,242.144108 192,304 L176,304 C176,233.307552 233.307552,176 304,176 C374.692448,176 432,233.307552 432,304 L416,304 Z M304,400 L304,384 L304,400 Z M384,304 C384,259.81722 348.18278,224 304,224 C259.81722,224 224,259.81722 224,304 L208,304 C208,250.980664 250.980664,208 304,208 C357.019336,208 400,250.980664 400,304 L384,304 Z M304,368 L304,352 L304,368 Z M352,304 C352,277.490332 330.509668,256 304,256 C277.490332,256 256,277.490332 256,304 L240,304 C240,268.653776 268.653776,240 304,240 C339.346224,240 368,268.653776 368,304 L352,304 Z" id="Shape" transform="translate(304.000000, 304.000000) rotate(-270.000000) translate(-304.000000, -304.000000) "></path>
                <path d="M304,0 L304,16 C242.144108,16 192,66.144108 192,128 C192,189.855892 242.144108,240 304,240 C365.855892,240 416,189.855892 416,128 L432,128 C432,198.692448 374.692448,256 304,256 C233.307552,256 176,198.692448 176,128 C176,57.307552 233.307552,0 304,0 Z M304,32 L304,48 C259.81722,48 224,83.81722 224,128 C224,172.18278 259.81722,208 304,208 C348.18278,208 384,172.18278 384,128 L400,128 C400,181.019336 357.019336,224 304,224 C250.980664,224 208,181.019336 208,128 C208,74.980664 250.980664,32 304,32 Z M304,64 L304,80 C277.490332,80 256,101.490332 256,128 C256,154.509668 277.490332,176 304,176 C330.509668,176 352,154.509668 352,128 L368,128 C368,163.346224 339.346224,192 304,192 C268.653776,192 240,163.346224 240,128 C240,92.653776 268.653776,64 304,64 Z" id="Combined-Shape"></path>
                <path d="M480,256 L480,240 L480,256 Z M592,128 C592,66.144108 541.855892,16 480,16 C418.144108,16 368,66.144108 368,128 L352,128 C352,57.307552 409.307552,0 480,0 C550.692448,0 608,57.307552 608,128 L592,128 Z M480,224 L480,208 L480,224 Z M560,128 C560,83.81722 524.18278,48 480,48 C435.81722,48 400,83.81722 400,128 L384,128 C384,74.980664 426.980664,32 480,32 C533.019336,32 576,74.980664 576,128 L560,128 Z M480,192 L480,176 L480,192 Z M528,128 C528,101.490332 506.509668,80 480,80 C453.490332,80 432,101.490332 432,128 L416,128 C416,92.653776 444.653776,64 480,64 C515.346224,64 544,92.653776 544,128 L528,128 Z" id="Shape"></path>
                <path d="M480,256 L480,240 L480,256 Z M592,128 C592,66.144108 541.855892,16 480,16 C418.144108,16 368,66.144108 368,128 L352,128 C352,57.307552 409.307552,0 480,0 C550.692448,0 608,57.307552 608,128 L592,128 Z M480,224 L480,208 L480,224 Z M560,128 C560,83.81722 524.18278,48 480,48 C435.81722,48 400,83.81722 400,128 L384,128 C384,74.980664 426.980664,32 480,32 C533.019336,32 576,74.980664 576,128 L560,128 Z M480,192 L480,176 L480,192 Z M528,128 C528,101.490332 506.509668,80 480,80 C453.490332,80 432,101.490332 432,128 L416,128 C416,92.653776 444.653776,64 480,64 C515.346224,64 544,92.653776 544,128 L528,128 Z" id="Shape" transform="translate(480.000000, 128.000000) rotate(-180.000000) translate(-480.000000, -128.000000) "></path>
                <path d="M656,0 L656,16 C594.144108,16 544,66.144108 544,128 C544,189.855892 594.144108,240 656,240 C717.855892,240 768,189.855892 768,128 L784,128 C784,198.692448 726.692448,256 656,256 C585.307552,256 528,198.692448 528,128 C528,57.307552 585.307552,0 656,0 Z M656,32 L656,48 C611.81722,48 576,83.81722 576,128 C576,172.18278 611.81722,208 656,208 C700.18278,208 736,172.18278 736,128 L752,128 C752,181.019336 709.019336,224 656,224 C602.980664,224 560,181.019336 560,128 C560,74.980664 602.980664,32 656,32 Z M656,64 L656,80 C629.490332,80 608,101.490332 608,128 C608,154.509668 629.490332,176 656,176 C682.509668,176 704,154.509668 704,128 L720,128 C720,163.346224 691.346224,192 656,192 C620.653776,192 592,163.346224 592,128 C592,92.653776 620.653776,64 656,64 Z" id="Combined-Shape" transform="translate(656.000000, 128.000000) scale(1, -1) rotate(-180.000000) translate(-656.000000, -128.000000) "></path>
                <path d="M656,256 L656,240 L656,256 Z M768,128 C768,66.144108 717.855892,16 656,16 C594.144108,16 544,66.144108 544,128 L528,128 C528,57.307552 585.307552,0 656,0 C726.692448,0 784,57.307552 784,128 L768,128 Z M656,224 L656,208 L656,224 Z M736,128 C736,83.81722 700.18278,48 656,48 C611.81722,48 576,83.81722 576,128 L560,128 C560,74.980664 602.980664,32 656,32 C709.019336,32 752,74.980664 752,128 L736,128 Z M656,192 L656,176 L656,192 Z M704,128 C704,101.490332 682.509668,80 656,80 C629.490332,80 608,101.490332 608,128 L592,128 C592,92.653776 620.653776,64 656,64 C691.346224,64 720,92.653776 720,128 L704,128 Z" id="Shape" transform="translate(656.000000, 128.000000) rotate(-90.000000) translate(-656.000000, -128.000000) "></path>
                <path d="M832,256 L832,240 L832,256 Z M944,128 C944,66.144108 893.855892,16 832,16 C770.144108,16 720,66.144108 720,128 L704,128 C704,57.307552 761.307552,0 832,0 C902.692448,0 960,57.307552 960,128 L944,128 Z M832,224 L832,208 L832,224 Z M912,128 C912,83.81722 876.18278,48 832,48 C787.81722,48 752,83.81722 752,128 L736,128 C736,74.980664 778.980664,32 832,32 C885.019336,32 928,74.980664 928,128 L912,128 Z M832,192 L832,176 L832,192 Z M880,128 C880,101.490332 858.509668,80 832,80 C805.490332,80 784,101.490332 784,128 L768,128 C768,92.653776 796.653776,64 832,64 C867.346224,64 896,92.653776 896,128 L880,128 Z" id="Shape" transform="translate(832.000000, 128.000000) rotate(-90.000000) translate(-832.000000, -128.000000) "></path>
                <path d="M304,256 L304,240 L304,256 Z M416,128 C416,66.144108 365.855892,16 304,16 C242.144108,16 192,66.144108 192,128 L176,128 C176,57.307552 233.307552,0 304,0 C374.692448,0 432,57.307552 432,128 L416,128 Z M304,224 L304,208 L304,224 Z M384,128 C384,83.81722 348.18278,48 304,48 C259.81722,48 224,83.81722 224,128 L208,128 C208,74.980664 250.980664,32 304,32 C357.019336,32 400,74.980664 400,128 L384,128 Z M304,192 L304,176 L304,192 Z M352,128 C352,101.490332 330.509668,80 304,80 C277.490332,80 256,101.490332 256,128 L240,128 C240,92.653776 268.653776,64 304,64 C339.346224,64 368,92.653776 368,128 L352,128 Z" id="Shape" transform="translate(304.000000, 128.000000) rotate(-270.000000) translate(-304.000000, -128.000000) "></path>
                <path d="M304,352 L304,368 C242.144108,368 192,418.144108 192,480 C192,541.855892 242.144108,592 304,592 C365.855892,592 416,541.855892 416,480 L432,480 C432,550.692448 374.692448,608 304,608 C233.307552,608 176,550.692448 176,480 C176,409.307552 233.307552,352 304,352 Z M304,384 L304,400 C259.81722,400 224,435.81722 224,480 C224,524.18278 259.81722,560 304,560 C348.18278,560 384,524.18278 384,480 L400,480 C400,533.019336 357.019336,576 304,576 C250.980664,576 208,533.019336 208,480 C208,426.980664 250.980664,384 304,384 Z M304,416 L304,432 C277.490332,432 256,453.490332 256,480 C256,506.509668 277.490332,528 304,528 C330.509668,528 352,506.509668 352,480 L368,480 C368,515.346224 339.346224,544 304,544 C268.653776,544 240,515.346224 240,480 C240,444.653776 268.653776,416 304,416 Z" id="Combined-Shape"></path>
                <path d="M480,608 L480,592 L480,608 Z M592,480 C592,418.144108 541.855892,368 480,368 C418.144108,368 368,418.144108 368,480 L352,480 C352,409.307552 409.307552,352 480,352 C550.692448,352 608,409.307552 608,480 L592,480 Z M480,576 L480,560 L480,576 Z M560,480 C560,435.81722 524.18278,400 480,400 C435.81722,400 400,435.81722 400,480 L384,480 C384,426.980664 426.980664,384 480,384 C533.019336,384 576,426.980664 576,480 L560,480 Z M480,544 L480,528 L480,544 Z M528,480 C528,453.490332 506.509668,432 480,432 C453.490332,432 432,453.490332 432,480 L416,480 C416,444.653776 444.653776,416 480,416 C515.346224,416 544,444.653776 544,480 L528,480 Z" id="Shape"></path>
                <path d="M480,608 L480,592 L480,608 Z M592,480 C592,418.144108 541.855892,368 480,368 C418.144108,368 368,418.144108 368,480 L352,480 C352,409.307552 409.307552,352 480,352 C550.692448,352 608,409.307552 608,480 L592,480 Z M480,576 L480,560 L480,576 Z M560,480 C560,435.81722 524.18278,400 480,400 C435.81722,400 400,435.81722 400,480 L384,480 C384,426.980664 426.980664,384 480,384 C533.019336,384 576,426.980664 576,480 L560,480 Z M480,544 L480,528 L480,544 Z M528,480 C528,453.490332 506.509668,432 480,432 C453.490332,432 432,453.490332 432,480 L416,480 C416,444.653776 444.653776,416 480,416 C515.346224,416 544,444.653776 544,480 L528,480 Z" id="Shape" transform="translate(480.000000, 480.000000) rotate(-180.000000) translate(-480.000000, -480.000000) "></path>
                <path d="M656,352 L656,368 C594.144108,368 544,418.144108 544,480 C544,541.855892 594.144108,592 656,592 C717.855892,592 768,541.855892 768,480 L784,480 C784,550.692448 726.692448,608 656,608 C585.307552,608 528,550.692448 528,480 C528,409.307552 585.307552,352 656,352 Z M656,384 L656,400 C611.81722,400 576,435.81722 576,480 C576,524.18278 611.81722,560 656,560 C700.18278,560 736,524.18278 736,480 L752,480 C752,533.019336 709.019336,576 656,576 C602.980664,576 560,533.019336 560,480 C560,426.980664 602.980664,384 656,384 Z M656,416 L656,432 C629.490332,432 608,453.490332 608,480 C608,506.509668 629.490332,528 656,528 C682.509668,528 704,506.509668 704,480 L720,480 C720,515.346224 691.346224,544 656,544 C620.653776,544 592,515.346224 592,480 C592,444.653776 620.653776,416 656,416 Z" id="Combined-Shape" transform="translate(656.000000, 480.000000) scale(1, -1) rotate(-180.000000) translate(-656.000000, -480.000000) "></path>
                <path d="M832,176 L832,192 C770.144108,192 720,242.144108 720,304 C720,365.855892 770.144108,416 832,416 C893.855892,416 944,365.855892 944,304 L960,304 C960,374.692448 902.692448,432 832,432 C761.307552,432 704,374.692448 704,304 C704,233.307552 761.307552,176 832,176 Z M832,208 L832,224 C787.81722,224 752,259.81722 752,304 C752,348.18278 787.81722,384 832,384 C876.18278,384 912,348.18278 912,304 L928,304 C928,357.019336 885.019336,400 832,400 C778.980664,400 736,357.019336 736,304 C736,250.980664 778.980664,208 832,208 Z M832,240 L832,256 C805.490332,256 784,277.490332 784,304 C784,330.509668 805.490332,352 832,352 C858.509668,352 880,330.509668 880,304 L896,304 C896,339.346224 867.346224,368 832,368 C796.653776,368 768,339.346224 768,304 C768,268.653776 796.653776,240 832,240 Z" id="Combined-Shape" transform="translate(832.000000, 304.000000) scale(1, -1) rotate(-180.000000) translate(-832.000000, -304.000000) "></path>
                <path d="M832,176 L832,192 C770.144108,192 720,242.144108 720,304 C720,365.855892 770.144108,416 832,416 C893.855892,416 944,365.855892 944,304 L960,304 C960,374.692448 902.692448,432 832,432 C761.307552,432 704,374.692448 704,304 C704,233.307552 761.307552,176 832,176 Z M832,208 L832,224 C787.81722,224 752,259.81722 752,304 C752,348.18278 787.81722,384 832,384 C876.18278,384 912,348.18278 912,304 L928,304 C928,357.019336 885.019336,400 832,400 C778.980664,400 736,357.019336 736,304 C736,250.980664 778.980664,208 832,208 Z M832,240 L832,256 C805.490332,256 784,277.490332 784,304 C784,330.509668 805.490332,352 832,352 C858.509668,352 880,330.509668 880,304 L896,304 C896,339.346224 867.346224,368 832,368 C796.653776,368 768,339.346224 768,304 C768,268.653776 796.653776,240 832,240 Z" id="Combined-Shape" transform="translate(832.000000, 304.000000) scale(1, -1) rotate(-270.000000) translate(-832.000000, -304.000000) "></path>
                <path d="M832,352 L832,368 C770.144108,368 720,418.144108 720,480 C720,541.855892 770.144108,592 832,592 C893.855892,592 944,541.855892 944,480 L960,480 C960,550.692448 902.692448,608 832,608 C761.307552,608 704,550.692448 704,480 C704,409.307552 761.307552,352 832,352 Z M832,384 L832,400 C787.81722,400 752,435.81722 752,480 C752,524.18278 787.81722,560 832,560 C876.18278,560 912,524.18278 912,480 L928,480 C928,533.019336 885.019336,576 832,576 C778.980664,576 736,533.019336 736,480 C736,426.980664 778.980664,384 832,384 Z M832,416 L832,432 C805.490332,432 784,453.490332 784,480 C784,506.509668 805.490332,528 832,528 C858.509668,528 880,506.509668 880,480 L896,480 C896,515.346224 867.346224,544 832,544 C796.653776,544 768,515.346224 768,480 C768,444.653776 796.653776,416 832,416 Z" id="Combined-Shape" transform="translate(832.000000, 480.000000) scale(1, -1) rotate(-180.000000) translate(-832.000000, -480.000000) "></path>
                <path d="M832,0 L832,16 C770.144108,16 720,66.144108 720,128 C720,189.855892 770.144108,240 832,240 C893.855892,240 944,189.855892 944,128 L960,128 C960,198.692448 902.692448,256 832,256 C761.307552,256 704,198.692448 704,128 C704,57.307552 761.307552,0 832,0 Z M832,32 L832,48 C787.81722,48 752,83.81722 752,128 C752,172.18278 787.81722,208 832,208 C876.18278,208 912,172.18278 912,128 L928,128 C928,181.019336 885.019336,224 832,224 C778.980664,224 736,181.019336 736,128 C736,74.980664 778.980664,32 832,32 Z M832,64 L832,80 C805.490332,80 784,101.490332 784,128 C784,154.509668 805.490332,176 832,176 C858.509668,176 880,154.509668 880,128 L896,128 C896,163.346224 867.346224,192 832,192 C796.653776,192 768,163.346224 768,128 C768,92.653776 796.653776,64 832,64 Z" id="Combined-Shape" transform="translate(832.000000, 128.000000) scale(1, -1) rotate(-180.000000) translate(-832.000000, -128.000000) "></path>
                <path d="M832,352 L832,368 C770.144108,368 720,418.144108 720,480 C720,541.855892 770.144108,592 832,592 C893.855892,592 944,541.855892 944,480 L960,480 C960,550.692448 902.692448,608 832,608 C761.307552,608 704,550.692448 704,480 C704,409.307552 761.307552,352 832,352 Z M832,384 L832,400 C787.81722,400 752,435.81722 752,480 C752,524.18278 787.81722,560 832,560 C876.18278,560 912,524.18278 912,480 L928,480 C928,533.019336 885.019336,576 832,576 C778.980664,576 736,533.019336 736,480 C736,426.980664 778.980664,384 832,384 Z M832,416 L832,432 C805.490332,432 784,453.490332 784,480 C784,506.509668 805.490332,528 832,528 C858.509668,528 880,506.509668 880,480 L896,480 C896,515.346224 867.346224,544 832,544 C796.653776,544 768,515.346224 768,480 C768,444.653776 796.653776,416 832,416 Z" id="Combined-Shape" transform="translate(832.000000, 480.000000) scale(1, -1) rotate(-180.000000) translate(-832.000000, -480.000000) "></path>
                <path d="M832,352 L832,368 C770.144108,368 720,418.144108 720,480 C720,541.855892 770.144108,592 832,592 C893.855892,592 944,541.855892 944,480 L960,480 C960,550.692448 902.692448,608 832,608 C761.307552,608 704,550.692448 704,480 C704,409.307552 761.307552,352 832,352 Z M832,384 L832,400 C787.81722,400 752,435.81722 752,480 C752,524.18278 787.81722,560 832,560 C876.18278,560 912,524.18278 912,480 L928,480 C928,533.019336 885.019336,576 832,576 C778.980664,576 736,533.019336 736,480 C736,426.980664 778.980664,384 832,384 Z M832,416 L832,432 C805.490332,432 784,453.490332 784,480 C784,506.509668 805.490332,528 832,528 C858.509668,528 880,506.509668 880,480 L896,480 C896,515.346224 867.346224,544 832,544 C796.653776,544 768,515.346224 768,480 C768,444.653776 796.653776,416 832,416 Z" id="Combined-Shape" transform="translate(832.000000, 480.000000) scale(1, -1) rotate(-270.000000) translate(-832.000000, -480.000000) "></path>
                <path d="M832,352 L832,368 C770.144108,368 720,418.144108 720,480 C720,541.855892 770.144108,592 832,592 C893.855892,592 944,541.855892 944,480 L960,480 C960,550.692448 902.692448,608 832,608 C761.307552,608 704,550.692448 704,480 C704,409.307552 761.307552,352 832,352 Z M832,384 L832,400 C787.81722,400 752,435.81722 752,480 C752,524.18278 787.81722,560 832,560 C876.18278,560 912,524.18278 912,480 L928,480 C928,533.019336 885.019336,576 832,576 C778.980664,576 736,533.019336 736,480 C736,426.980664 778.980664,384 832,384 Z M832,416 L832,432 C805.490332,432 784,453.490332 784,480 C784,506.509668 805.490332,528 832,528 C858.509668,528 880,506.509668 880,480 L896,480 C896,515.346224 867.346224,544 832,544 C796.653776,544 768,515.346224 768,480 C768,444.653776 796.653776,416 832,416 Z" id="Combined-Shape" transform="translate(832.000000, 480.000000) scale(1, -1) rotate(-270.000000) translate(-832.000000, -480.000000) "></path>
                <path d="M656,608 L656,592 L656,608 Z M768,480 C768,418.144108 717.855892,368 656,368 C594.144108,368 544,418.144108 544,480 L528,480 C528,409.307552 585.307552,352 656,352 C726.692448,352 784,409.307552 784,480 L768,480 Z M656,576 L656,560 L656,576 Z M736,480 C736,435.81722 700.18278,400 656,400 C611.81722,400 576,435.81722 576,480 L560,480 C560,426.980664 602.980664,384 656,384 C709.019336,384 752,426.980664 752,480 L736,480 Z M656,544 L656,528 L656,544 Z M704,480 C704,453.490332 682.509668,432 656,432 C629.490332,432 608,453.490332 608,480 L592,480 C592,444.653776 620.653776,416 656,416 C691.346224,416 720,444.653776 720,480 L704,480 Z" id="Shape" transform="translate(656.000000, 480.000000) rotate(-90.000000) translate(-656.000000, -480.000000) "></path>
                <path d="M304,608 L304,592 L304,608 Z M416,480 C416,418.144108 365.855892,368 304,368 C242.144108,368 192,418.144108 192,480 L176,480 C176,409.307552 233.307552,352 304,352 C374.692448,352 432,409.307552 432,480 L416,480 Z M304,576 L304,560 L304,576 Z M384,480 C384,435.81722 348.18278,400 304,400 C259.81722,400 224,435.81722 224,480 L208,480 C208,426.980664 250.980664,384 304,384 C357.019336,384 400,426.980664 400,480 L384,480 Z M304,544 L304,528 L304,544 Z M352,480 C352,453.490332 330.509668,432 304,432 C277.490332,432 256,453.490332 256,480 L240,480 C240,444.653776 268.653776,416 304,416 C339.346224,416 368,444.653776 368,480 L352,480 Z" id="Shape" transform="translate(304.000000, 480.000000) rotate(-270.000000) translate(-304.000000, -480.000000) "></path>
                <g id="Group-36">
                    <path d="M128,176 L128,192 C66.144108,192 16,242.144108 16,304 C16,365.855892 66.144108,416 128,416 C189.855892,416 240,365.855892 240,304 L256,304 C256,374.692448 198.692448,432 128,432 C57.307552,432 0,374.692448 0,304 C0,233.307552 57.307552,176 128,176 Z M128,208 L128,224 C83.81722,224 48,259.81722 48,304 C48,348.18278 83.81722,384 128,384 C172.18278,384 208,348.18278 208,304 L224,304 C224,357.019336 181.019336,400 128,400 C74.980664,400 32,357.019336 32,304 C32,250.980664 74.980664,208 128,208 Z M128,240 L128,256 C101.490332,256 80,277.490332 80,304 C80,330.509668 101.490332,352 128,352 C154.509668,352 176,330.509668 176,304 L192,304 C192,339.346224 163.346224,368 128,368 C92.653776,368 64,339.346224 64,304 C64,268.653776 92.653776,240 128,240 Z" id="Combined-Shape"></path>
                    <path d="M128,432 L128,416 L128,432 Z M240,304 C240,242.144108 189.855892,192 128,192 C66.144108,192 16,242.144108 16,304 L0,304 C0,233.307552 57.307552,176 128,176 C198.692448,176 256,233.307552 256,304 L240,304 Z M128,400 L128,384 L128,400 Z M208,304 C208,259.81722 172.18278,224 128,224 C83.81722,224 48,259.81722 48,304 L32,304 C32,250.980664 74.980664,208 128,208 C181.019336,208 224,250.980664 224,304 L208,304 Z M128,368 L128,352 L128,368 Z M176,304 C176,277.490332 154.509668,256 128,256 C101.490332,256 80,277.490332 80,304 L64,304 C64,268.653776 92.653776,240 128,240 C163.346224,240 192,268.653776 192,304 L176,304 Z" id="Shape" transform="translate(128.000000, 304.000000) rotate(-270.000000) translate(-128.000000, -304.000000) "></path>
                    <path d="M128,0 L128,16 C66.144108,16 16,66.144108 16,128 C16,189.855892 66.144108,240 128,240 C189.855892,240 240,189.855892 240,128 L256,128 C256,198.692448 198.692448,256 128,256 C57.307552,256 0,198.692448 0,128 C0,57.307552 57.307552,0 128,0 Z M128,32 L128,48 C83.81722,48 48,83.81722 48,128 C48,172.18278 83.81722,208 128,208 C172.18278,208 208,172.18278 208,128 L224,128 C224,181.019336 181.019336,224 128,224 C74.980664,224 32,181.019336 32,128 C32,74.980664 74.980664,32 128,32 Z M128,64 L128,80 C101.490332,80 80,101.490332 80,128 C80,154.509668 101.490332,176 128,176 C154.509668,176 176,154.509668 176,128 L192,128 C192,163.346224 163.346224,192 128,192 C92.653776,192 64,163.346224 64,128 C64,92.653776 92.653776,64 128,64 Z" id="Combined-Shape"></path>
                    <path d="M128,256 L128,240 L128,256 Z M240,128 C240,66.144108 189.855892,16 128,16 C66.144108,16 16,66.144108 16,128 L0,128 C0,57.307552 57.307552,0 128,0 C198.692448,0 256,57.307552 256,128 L240,128 Z M128,224 L128,208 L128,224 Z M208,128 C208,83.81722 172.18278,48 128,48 C83.81722,48 48,83.81722 48,128 L32,128 C32,74.980664 74.980664,32 128,32 C181.019336,32 224,74.980664 224,128 L208,128 Z M128,192 L128,176 L128,192 Z M176,128 C176,101.490332 154.509668,80 128,80 C101.490332,80 80,101.490332 80,128 L64,128 C64,92.653776 92.653776,64 128,64 C163.346224,64 192,92.653776 192,128 L176,128 Z" id="Shape" transform="translate(128.000000, 128.000000) rotate(-270.000000) translate(-128.000000, -128.000000) "></path>
                    <path d="M128,352 L128,368 C66.144108,368 16,418.144108 16,480 C16,541.855892 66.144108,592 128,592 C189.855892,592 240,541.855892 240,480 L256,480 C256,550.692448 198.692448,608 128,608 C57.307552,608 0,550.692448 0,480 C0,409.307552 57.307552,352 128,352 Z M128,384 L128,400 C83.81722,400 48,435.81722 48,480 C48,524.18278 83.81722,560 128,560 C172.18278,560 208,524.18278 208,480 L224,480 C224,533.019336 181.019336,576 128,576 C74.980664,576 32,533.019336 32,480 C32,426.980664 74.980664,384 128,384 Z M128,416 L128,432 C101.490332,432 80,453.490332 80,480 C80,506.509668 101.490332,528 128,528 C154.509668,528 176,506.509668 176,480 L192,480 C192,515.346224 163.346224,544 128,544 C92.653776,544 64,515.346224 64,480 C64,444.653776 92.653776,416 128,416 Z" id="Combined-Shape"></path>
                    <path d="M128,608 L128,592 L128,608 Z M240,480 C240,418.144108 189.855892,368 128,368 C66.144108,368 16,418.144108 16,480 L0,480 C0,409.307552 57.307552,352 128,352 C198.692448,352 256,409.307552 256,480 L240,480 Z M128,576 L128,560 L128,576 Z M208,480 C208,435.81722 172.18278,400 128,400 C83.81722,400 48,435.81722 48,480 L32,480 C32,426.980664 74.980664,384 128,384 C181.019336,384 224,426.980664 224,480 L208,480 Z M128,544 L128,528 L128,544 Z M176,480 C176,453.490332 154.509668,432 128,432 C101.490332,432 80,453.490332 80,480 L64,480 C64,444.653776 92.653776,416 128,416 C163.346224,416 192,444.653776 192,480 L176,480 Z" id="Shape" transform="translate(128.000000, 480.000000) rotate(-270.000000) translate(-128.000000, -480.000000) "></path>
                </g>
            </g>
        </g>
    </g>
</svg>