<?xml version="1.0" encoding="UTF-8"?>
<svg width="427px" height="536px" viewBox="0 0 427 536" version="1.1" xmlns="http://www.w3.org/2000/svg" xmlns:xlink="http://www.w3.org/1999/xlink">
    <!-- Generator: sketchtool 54.1 (76490) - https://sketchapp.com -->
    <title>9FEC1AA0-5DBE-4179-BD9F-9C84151C27C6</title>
    <desc>Created with sketchtool.</desc>
    <defs>
        <filter x="-2.9%" y="-2.9%" width="105.9%" height="105.9%" filterUnits="objectBoundingBox" id="filter-1">
            <feGaussianBlur stdDeviation="5" in="SourceGraphic"></feGaussianBlur>
        </filter>
    </defs>
    <g id="Page-1" stroke="none" stroke-width="1" fill="none" fill-rule="evenodd">
        <g id="LOGISTICS-PROJECT-v2" transform="translate(-1013.000000, -249.000000)" fill="#F79369">
            <g id="Decorative-routes-thing" transform="translate(1025.000000, 251.000000)">
                <path d="M404.210526,225.578947 C381.886595,225.578947 363.789474,243.676069 363.789474,266 C363.789474,288.323931 381.886595,306.421053 404.210526,306.421053 C463.741009,306.421053 512,354.680044 512,414.210526 C512,473.741009 463.741009,522 404.210526,522 C344.680044,522 296.421053,473.741009 296.421053,414.210526 C296.421053,391.886595 278.323931,373.789474 256,373.789474 C233.676069,373.789474 215.578947,391.886595 215.578947,414.210526 C215.578947,473.741009 167.319956,522 107.789474,522 C48.2589912,522 0,473.741009 0,414.210526 C0,354.680044 48.2589912,306.421053 107.789474,306.421053 C130.113405,306.421053 148.210526,288.323931 148.210526,266 C148.210526,243.676069 130.113405,225.578947 107.789474,225.578947 C48.2589912,225.578947 0,177.319956 0,117.789474 C0,58.2589912 48.2589912,10 107.789474,10 C167.319956,10 215.578947,58.2589912 215.578947,117.789474 C215.578947,140.113405 233.676069,158.210526 256,158.210526 C278.323931,158.210526 296.421053,140.113405 296.421053,117.789474 C296.421053,58.2589912 344.680044,10 404.210526,10 C463.741009,10 512,58.2589912 512,117.789474 C512,177.319956 463.741009,225.578947 404.210526,225.578947 Z M404.210526,212.105263 C456.299699,212.105263 498.526316,169.878646 498.526316,117.789474 C498.526316,65.7003015 456.299699,23.4736842 404.210526,23.4736842 C352.121354,23.4736842 309.894737,65.7003015 309.894737,117.789474 C309.894737,147.554715 285.765241,171.684211 256,171.684211 C226.234759,171.684211 202.105263,147.554715 202.105263,117.789474 C202.105263,65.7003015 159.878646,23.4736842 107.789474,23.4736842 C55.7003015,23.4736842 13.4736842,65.7003015 13.4736842,117.789474 C13.4736842,169.878646 55.7003015,212.105263 107.789474,212.105263 C137.554715,212.105263 161.684211,236.234759 161.684211,266 C161.684211,295.765241 137.554715,319.894737 107.789474,319.894737 C55.7003015,319.894737 13.4736842,362.121354 13.4736842,414.210526 C13.4736842,466.299699 55.7003015,508.526316 107.789474,508.526316 C159.878646,508.526316 202.105263,466.299699 202.105263,414.210526 C202.105263,384.445285 226.234759,360.315789 256,360.315789 C285.765241,360.315789 309.894737,384.445285 309.894737,414.210526 C309.894737,466.299699 352.121354,508.526316 404.210526,508.526316 C456.299699,508.526316 498.526316,466.299699 498.526316,414.210526 C498.526316,362.121354 456.299699,319.894737 404.210526,319.894737 C374.445285,319.894737 350.315789,295.765241 350.315789,266 C350.315789,236.234759 374.445285,212.105263 404.210526,212.105263 Z M404.210526,198.631579 C367.003975,198.631579 336.842105,228.793448 336.842105,266 C336.842105,303.206552 367.003975,333.368421 404.210526,333.368421 C448.858388,333.368421 485.052632,369.562664 485.052632,414.210526 C485.052632,458.858388 448.858388,495.052632 404.210526,495.052632 C359.562664,495.052632 323.368421,458.858388 323.368421,414.210526 C323.368421,377.003975 293.206552,346.842105 256,346.842105 C218.793448,346.842105 188.631579,377.003975 188.631579,414.210526 C188.631579,458.858388 152.437336,495.052632 107.789474,495.052632 C63.1416118,495.052632 26.9473684,458.858388 26.9473684,414.210526 C26.9473684,369.562664 63.1416118,333.368421 107.789474,333.368421 C144.996025,333.368421 175.157895,303.206552 175.157895,266 C175.157895,228.793448 144.996025,198.631579 107.789474,198.631579 C63.1416118,198.631579 26.9473684,162.437336 26.9473684,117.789474 C26.9473684,73.1416118 63.1416118,36.9473684 107.789474,36.9473684 C152.437336,36.9473684 188.631579,73.1416118 188.631579,117.789474 C188.631579,154.996025 218.793448,185.157895 256,185.157895 C293.206552,185.157895 323.368421,154.996025 323.368421,117.789474 C323.368421,73.1416118 359.562664,36.9473684 404.210526,36.9473684 C448.858388,36.9473684 485.052632,73.1416118 485.052632,117.789474 C485.052632,162.437336 448.858388,198.631579 404.210526,198.631579 L404.210526,198.631579 Z M404.210526,185.157895 C441.417078,185.157895 471.578947,154.996025 471.578947,117.789474 C471.578947,80.5829221 441.417078,50.4210526 404.210526,50.4210526 C367.003975,50.4210526 336.842105,80.5829221 336.842105,117.789474 C336.842105,162.437336 300.647862,198.631579 256,198.631579 C211.352138,198.631579 175.157895,162.437336 175.157895,117.789474 C175.157895,80.5829221 144.996025,50.4210526 107.789474,50.4210526 C70.5829221,50.4210526 40.4210526,80.5829221 40.4210526,117.789474 C40.4210526,154.996025 70.5829221,185.157895 107.789474,185.157895 C152.437336,185.157895 188.631579,221.352138 188.631579,266 C188.631579,310.647862 152.437336,346.842105 107.789474,346.842105 C70.5829221,346.842105 40.4210526,377.003975 40.4210526,414.210526 C40.4210526,451.417078 70.5829221,481.578947 107.789474,481.578947 C144.996025,481.578947 175.157895,451.417078 175.157895,414.210526 C175.157895,369.562664 211.352138,333.368421 256,333.368421 C300.647862,333.368421 336.842105,369.562664 336.842105,414.210526 C336.842105,451.417078 367.003975,481.578947 404.210526,481.578947 C441.417078,481.578947 471.578947,451.417078 471.578947,414.210526 C471.578947,377.003975 441.417078,346.842105 404.210526,346.842105 C359.562664,346.842105 323.368421,310.647862 323.368421,266 C323.368421,221.352138 359.562664,185.157895 404.210526,185.157895 Z M404.210526,171.684211 C352.121354,171.684211 309.894737,213.910828 309.894737,266 C309.894737,318.089172 352.121354,360.315789 404.210526,360.315789 C433.975768,360.315789 458.105263,384.445285 458.105263,414.210526 C458.105263,443.975768 433.975768,468.105263 404.210526,468.105263 C374.445285,468.105263 350.315789,443.975768 350.315789,414.210526 C350.315789,362.121354 308.089172,319.894737 256,319.894737 C203.910828,319.894737 161.684211,362.121354 161.684211,414.210526 C161.684211,443.975768 137.554715,468.105263 107.789474,468.105263 C78.0242324,468.105263 53.8947368,443.975768 53.8947368,414.210526 C53.8947368,384.445285 78.0242324,360.315789 107.789474,360.315789 C159.878646,360.315789 202.105263,318.089172 202.105263,266 C202.105263,213.910828 159.878646,171.684211 107.789474,171.684211 C78.0242324,171.684211 53.8947368,147.554715 53.8947368,117.789474 C53.8947368,88.0242324 78.0242324,63.8947368 107.789474,63.8947368 C137.554715,63.8947368 161.684211,88.0242324 161.684211,117.789474 C161.684211,169.878646 203.910828,212.105263 256,212.105263 C308.089172,212.105263 350.315789,169.878646 350.315789,117.789474 C350.315789,88.0242324 374.445285,63.8947368 404.210526,63.8947368 C433.975768,63.8947368 458.105263,88.0242324 458.105263,117.789474 C458.105263,147.554715 433.975768,171.684211 404.210526,171.684211 L404.210526,171.684211 Z M404.210526,158.210526 C426.534457,158.210526 444.631579,140.113405 444.631579,117.789474 C444.631579,95.4655427 426.534457,77.3684211 404.210526,77.3684211 C381.886595,77.3684211 363.789474,95.4655427 363.789474,117.789474 C363.789474,138.396404 358.006835,157.652726 347.97574,174.02426 C364.347274,163.993165 383.603596,158.210526 404.210526,158.210526 L404.210526,158.210526 Z M312.234786,209.765214 C295.863253,219.796309 276.60693,225.578947 256,225.578947 C235.39307,225.578947 216.136747,219.796309 199.765214,209.765214 C209.796309,226.136747 215.578947,245.39307 215.578947,266 C215.578947,286.60693 209.796309,305.863253 199.765214,322.234786 C216.136747,312.203691 235.39307,306.421053 256,306.421053 C276.60693,306.421053 295.863253,312.203691 312.234786,322.234786 C302.203691,305.863253 296.421053,286.60693 296.421053,266 C296.421053,245.39307 302.203691,226.136747 312.234786,209.765214 L312.234786,209.765214 Z M347.97574,357.97574 C358.006835,374.347274 363.789474,393.603596 363.789474,414.210526 C363.789474,436.534457 381.886595,454.631579 404.210526,454.631579 C426.534457,454.631579 444.631579,436.534457 444.631579,414.210526 C444.631579,391.886595 426.534457,373.789474 404.210526,373.789474 C383.603596,373.789474 364.347274,368.006835 347.97574,357.97574 L347.97574,357.97574 Z M148.210526,117.789474 C148.210526,95.4655427 130.113405,77.3684211 107.789474,77.3684211 C85.4655427,77.3684211 67.3684211,95.4655427 67.3684211,117.789474 C67.3684211,140.113405 85.4655427,158.210526 107.789474,158.210526 C128.396404,158.210526 147.652726,163.993165 164.02426,174.02426 C153.993165,157.652726 148.210526,138.396404 148.210526,117.789474 L148.210526,117.789474 Z M107.789474,373.789474 C85.4655427,373.789474 67.3684211,391.886595 67.3684211,414.210526 C67.3684211,436.534457 85.4655427,454.631579 107.789474,454.631579 C130.113405,454.631579 148.210526,436.534457 148.210526,414.210526 C148.210526,393.603596 153.993165,374.347274 164.02426,357.97574 C147.652726,368.006835 128.396404,373.789474 107.789474,373.789474 L107.789474,373.789474 Z" id="Shape" fill-opacity="0.5" filter="url(#filter-1)"></path>
                <path d="M404.210526,215.578947 C381.886595,215.578947 363.789474,233.676069 363.789474,256 C363.789474,278.323931 381.886595,296.421053 404.210526,296.421053 C463.741009,296.421053 512,344.680044 512,404.210526 C512,463.741009 463.741009,512 404.210526,512 C344.680044,512 296.421053,463.741009 296.421053,404.210526 C296.421053,381.886595 278.323931,363.789474 256,363.789474 C233.676069,363.789474 215.578947,381.886595 215.578947,404.210526 C215.578947,463.741009 167.319956,512 107.789474,512 C48.2589912,512 0,463.741009 0,404.210526 C0,344.680044 48.2589912,296.421053 107.789474,296.421053 C130.113405,296.421053 148.210526,278.323931 148.210526,256 C148.210526,233.676069 130.113405,215.578947 107.789474,215.578947 C48.2589912,215.578947 0,167.319956 0,107.789474 C0,48.2589912 48.2589912,5.68434189e-14 107.789474,5.68434189e-14 C167.319956,5.68434189e-14 215.578947,48.2589912 215.578947,107.789474 C215.578947,130.113405 233.676069,148.210526 256,148.210526 C278.323931,148.210526 296.421053,130.113405 296.421053,107.789474 C296.421053,48.2589912 344.680044,5.68434189e-14 404.210526,5.68434189e-14 C463.741009,5.68434189e-14 512,48.2589912 512,107.789474 C512,167.319956 463.741009,215.578947 404.210526,215.578947 Z M404.210526,202.105263 C456.299699,202.105263 498.526316,159.878646 498.526316,107.789474 C498.526316,55.7003015 456.299699,13.4736842 404.210526,13.4736842 C352.121354,13.4736842 309.894737,55.7003015 309.894737,107.789474 C309.894737,137.554715 285.765241,161.684211 256,161.684211 C226.234759,161.684211 202.105263,137.554715 202.105263,107.789474 C202.105263,55.7003015 159.878646,13.4736842 107.789474,13.4736842 C55.7003015,13.4736842 13.4736842,55.7003015 13.4736842,107.789474 C13.4736842,159.878646 55.7003015,202.105263 107.789474,202.105263 C137.554715,202.105263 161.684211,226.234759 161.684211,256 C161.684211,285.765241 137.554715,309.894737 107.789474,309.894737 C55.7003015,309.894737 13.4736842,352.121354 13.4736842,404.210526 C13.4736842,456.299699 55.7003015,498.526316 107.789474,498.526316 C159.878646,498.526316 202.105263,456.299699 202.105263,404.210526 C202.105263,374.445285 226.234759,350.315789 256,350.315789 C285.765241,350.315789 309.894737,374.445285 309.894737,404.210526 C309.894737,456.299699 352.121354,498.526316 404.210526,498.526316 C456.299699,498.526316 498.526316,456.299699 498.526316,404.210526 C498.526316,352.121354 456.299699,309.894737 404.210526,309.894737 C374.445285,309.894737 350.315789,285.765241 350.315789,256 C350.315789,226.234759 374.445285,202.105263 404.210526,202.105263 Z M404.210526,188.631579 C367.003975,188.631579 336.842105,218.793448 336.842105,256 C336.842105,293.206552 367.003975,323.368421 404.210526,323.368421 C448.858388,323.368421 485.052632,359.562664 485.052632,404.210526 C485.052632,448.858388 448.858388,485.052632 404.210526,485.052632 C359.562664,485.052632 323.368421,448.858388 323.368421,404.210526 C323.368421,367.003975 293.206552,336.842105 256,336.842105 C218.793448,336.842105 188.631579,367.003975 188.631579,404.210526 C188.631579,448.858388 152.437336,485.052632 107.789474,485.052632 C63.1416118,485.052632 26.9473684,448.858388 26.9473684,404.210526 C26.9473684,359.562664 63.1416118,323.368421 107.789474,323.368421 C144.996025,323.368421 175.157895,293.206552 175.157895,256 C175.157895,218.793448 144.996025,188.631579 107.789474,188.631579 C63.1416118,188.631579 26.9473684,152.437336 26.9473684,107.789474 C26.9473684,63.1416118 63.1416118,26.9473684 107.789474,26.9473684 C152.437336,26.9473684 188.631579,63.1416118 188.631579,107.789474 C188.631579,144.996025 218.793448,175.157895 256,175.157895 C293.206552,175.157895 323.368421,144.996025 323.368421,107.789474 C323.368421,63.1416118 359.562664,26.9473684 404.210526,26.9473684 C448.858388,26.9473684 485.052632,63.1416118 485.052632,107.789474 C485.052632,152.437336 448.858388,188.631579 404.210526,188.631579 L404.210526,188.631579 Z M404.210526,175.157895 C441.417078,175.157895 471.578947,144.996025 471.578947,107.789474 C471.578947,70.5829221 441.417078,40.4210526 404.210526,40.4210526 C367.003975,40.4210526 336.842105,70.5829221 336.842105,107.789474 C336.842105,152.437336 300.647862,188.631579 256,188.631579 C211.352138,188.631579 175.157895,152.437336 175.157895,107.789474 C175.157895,70.5829221 144.996025,40.4210526 107.789474,40.4210526 C70.5829221,40.4210526 40.4210526,70.5829221 40.4210526,107.789474 C40.4210526,144.996025 70.5829221,175.157895 107.789474,175.157895 C152.437336,175.157895 188.631579,211.352138 188.631579,256 C188.631579,300.647862 152.437336,336.842105 107.789474,336.842105 C70.5829221,336.842105 40.4210526,367.003975 40.4210526,404.210526 C40.4210526,441.417078 70.5829221,471.578947 107.789474,471.578947 C144.996025,471.578947 175.157895,441.417078 175.157895,404.210526 C175.157895,359.562664 211.352138,323.368421 256,323.368421 C300.647862,323.368421 336.842105,359.562664 336.842105,404.210526 C336.842105,441.417078 367.003975,471.578947 404.210526,471.578947 C441.417078,471.578947 471.578947,441.417078 471.578947,404.210526 C471.578947,367.003975 441.417078,336.842105 404.210526,336.842105 C359.562664,336.842105 323.368421,300.647862 323.368421,256 C323.368421,211.352138 359.562664,175.157895 404.210526,175.157895 Z M404.210526,161.684211 C352.121354,161.684211 309.894737,203.910828 309.894737,256 C309.894737,308.089172 352.121354,350.315789 404.210526,350.315789 C433.975768,350.315789 458.105263,374.445285 458.105263,404.210526 C458.105263,433.975768 433.975768,458.105263 404.210526,458.105263 C374.445285,458.105263 350.315789,433.975768 350.315789,404.210526 C350.315789,352.121354 308.089172,309.894737 256,309.894737 C203.910828,309.894737 161.684211,352.121354 161.684211,404.210526 C161.684211,433.975768 137.554715,458.105263 107.789474,458.105263 C78.0242324,458.105263 53.8947368,433.975768 53.8947368,404.210526 C53.8947368,374.445285 78.0242324,350.315789 107.789474,350.315789 C159.878646,350.315789 202.105263,308.089172 202.105263,256 C202.105263,203.910828 159.878646,161.684211 107.789474,161.684211 C78.0242324,161.684211 53.8947368,137.554715 53.8947368,107.789474 C53.8947368,78.0242324 78.0242324,53.8947368 107.789474,53.8947368 C137.554715,53.8947368 161.684211,78.0242324 161.684211,107.789474 C161.684211,159.878646 203.910828,202.105263 256,202.105263 C308.089172,202.105263 350.315789,159.878646 350.315789,107.789474 C350.315789,78.0242324 374.445285,53.8947368 404.210526,53.8947368 C433.975768,53.8947368 458.105263,78.0242324 458.105263,107.789474 C458.105263,137.554715 433.975768,161.684211 404.210526,161.684211 L404.210526,161.684211 Z M404.210526,148.210526 C426.534457,148.210526 444.631579,130.113405 444.631579,107.789474 C444.631579,85.4655427 426.534457,67.3684211 404.210526,67.3684211 C381.886595,67.3684211 363.789474,85.4655427 363.789474,107.789474 C363.789474,128.396404 358.006835,147.652726 347.97574,164.02426 C364.347274,153.993165 383.603596,148.210526 404.210526,148.210526 L404.210526,148.210526 Z M312.234786,199.765214 C295.863253,209.796309 276.60693,215.578947 256,215.578947 C235.39307,215.578947 216.136747,209.796309 199.765214,199.765214 C209.796309,216.136747 215.578947,235.39307 215.578947,256 C215.578947,276.60693 209.796309,295.863253 199.765214,312.234786 C216.136747,302.203691 235.39307,296.421053 256,296.421053 C276.60693,296.421053 295.863253,302.203691 312.234786,312.234786 C302.203691,295.863253 296.421053,276.60693 296.421053,256 C296.421053,235.39307 302.203691,216.136747 312.234786,199.765214 L312.234786,199.765214 Z M347.97574,347.97574 C358.006835,364.347274 363.789474,383.603596 363.789474,404.210526 C363.789474,426.534457 381.886595,444.631579 404.210526,444.631579 C426.534457,444.631579 444.631579,426.534457 444.631579,404.210526 C444.631579,381.886595 426.534457,363.789474 404.210526,363.789474 C383.603596,363.789474 364.347274,358.006835 347.97574,347.97574 L347.97574,347.97574 Z M148.210526,107.789474 C148.210526,85.4655427 130.113405,67.3684211 107.789474,67.3684211 C85.4655427,67.3684211 67.3684211,85.4655427 67.3684211,107.789474 C67.3684211,130.113405 85.4655427,148.210526 107.789474,148.210526 C128.396404,148.210526 147.652726,153.993165 164.02426,164.02426 C153.993165,147.652726 148.210526,128.396404 148.210526,107.789474 L148.210526,107.789474 Z M107.789474,363.789474 C85.4655427,363.789474 67.3684211,381.886595 67.3684211,404.210526 C67.3684211,426.534457 85.4655427,444.631579 107.789474,444.631579 C130.113405,444.631579 148.210526,426.534457 148.210526,404.210526 C148.210526,383.603596 153.993165,364.347274 164.02426,347.97574 C147.652726,358.006835 128.396404,363.789474 107.789474,363.789474 L107.789474,363.789474 Z" id="Shape"></path>
            </g>
        </g>
    </g>
</svg>