<?xml version="1.0" encoding="UTF-8"?>
<svg width="186px" height="372px" viewBox="0 0 186 372" version="1.1" xmlns="http://www.w3.org/2000/svg" xmlns:xlink="http://www.w3.org/1999/xlink">
    <!-- Generator: sketchtool 55 (78076) - https://sketchapp.com -->
    <title>1BB67925-3C7E-4EAB-8C55-091C5476A3E7</title>
    <desc>Created with sketchtool.</desc>
    <defs>
        <filter x="-2.9%" y="-2.9%" width="105.9%" height="105.9%" filterUnits="objectBoundingBox" id="filter-1">
            <feGaussianBlur stdDeviation="3.4765625" in="SourceGraphic"></feGaussianBlur>
        </filter>
    </defs>
    <g id="Page-1" stroke="none" stroke-width="1" fill="none" fill-rule="evenodd">
        <g id="Logistics-mobile" transform="translate(-189.000000, -587.000000)" fill="#F79369">
            <g id="Decorative-routes-thing" transform="translate(197.000000, 588.000000)">
                <path d="M281.052632,156.868119 C265.530523,156.868119 252.947368,169.452899 252.947368,184.977011 C252.947368,200.501124 265.530523,213.085904 281.052632,213.085904 C322.44492,213.085904 356,246.645318 356,288.042952 C356,329.440587 322.44492,363 281.052632,363 C239.660343,363 206.105263,329.440587 206.105263,288.042952 C206.105263,272.518839 193.522108,259.934059 178,259.934059 C162.477892,259.934059 149.894737,272.518839 149.894737,288.042952 C149.894737,329.440587 116.339657,363 74.9473684,363 C33.5550798,363 0,329.440587 0,288.042952 C0,246.645318 33.5550798,213.085904 74.9473684,213.085904 C90.4694767,213.085904 103.052632,200.501124 103.052632,184.977011 C103.052632,169.452899 90.4694767,156.868119 74.9473684,156.868119 C33.5550798,156.868119 0,123.308705 0,81.9110708 C0,40.5134364 33.5550798,6.95402299 74.9473684,6.95402299 C116.339657,6.95402299 149.894737,40.5134364 149.894737,81.9110708 C149.894737,97.4351837 162.477892,110.019964 178,110.019964 C193.522108,110.019964 206.105263,97.4351837 206.105263,81.9110708 C206.105263,40.5134364 239.660343,6.95402299 281.052632,6.95402299 C322.44492,6.95402299 356,40.5134364 356,81.9110708 C356,123.308705 322.44492,156.868119 281.052632,156.868119 Z M281.052632,147.498488 C317.270884,147.498488 346.631579,118.134001 346.631579,81.9110708 C346.631579,45.6881407 317.270884,16.323654 281.052632,16.323654 C244.834379,16.323654 215.473684,45.6881407 215.473684,81.9110708 C215.473684,102.609888 198.696144,119.389595 178,119.389595 C157.303856,119.389595 140.526316,102.609888 140.526316,81.9110708 C140.526316,45.6881407 111.165621,16.323654 74.9473684,16.323654 C38.7291159,16.323654 9.36842105,45.6881407 9.36842105,81.9110708 C9.36842105,118.134001 38.7291159,147.498488 74.9473684,147.498488 C95.6435127,147.498488 112.421053,164.278194 112.421053,184.977011 C112.421053,205.675829 95.6435127,222.455535 74.9473684,222.455535 C38.7291159,222.455535 9.36842105,251.820022 9.36842105,288.042952 C9.36842105,324.265882 38.7291159,353.630369 74.9473684,353.630369 C111.165621,353.630369 140.526316,324.265882 140.526316,288.042952 C140.526316,267.344135 157.303856,250.564428 178,250.564428 C198.696144,250.564428 215.473684,267.344135 215.473684,288.042952 C215.473684,324.265882 244.834379,353.630369 281.052632,353.630369 C317.270884,353.630369 346.631579,324.265882 346.631579,288.042952 C346.631579,251.820022 317.270884,222.455535 281.052632,222.455535 C260.356487,222.455535 243.578947,205.675829 243.578947,184.977011 C243.578947,164.278194 260.356487,147.498488 281.052632,147.498488 Z M281.052632,138.128857 C255.182451,138.128857 234.210526,159.10349 234.210526,184.977011 C234.210526,210.850533 255.182451,231.825166 281.052632,231.825166 C312.096848,231.825166 337.263158,256.994726 337.263158,288.042952 C337.263158,319.091178 312.096848,344.260738 281.052632,344.260738 C250.008415,344.260738 224.842105,319.091178 224.842105,288.042952 C224.842105,262.169431 203.87018,241.194797 178,241.194797 C152.12982,241.194797 131.157895,262.169431 131.157895,288.042952 C131.157895,319.091178 105.991585,344.260738 74.9473684,344.260738 C43.903152,344.260738 18.7368421,319.091178 18.7368421,288.042952 C18.7368421,256.994726 43.903152,231.825166 74.9473684,231.825166 C100.817549,231.825166 121.789474,210.850533 121.789474,184.977011 C121.789474,159.10349 100.817549,138.128857 74.9473684,138.128857 C43.903152,138.128857 18.7368421,112.959297 18.7368421,81.9110708 C18.7368421,50.862845 43.903152,25.6932849 74.9473684,25.6932849 C105.991585,25.6932849 131.157895,50.862845 131.157895,81.9110708 C131.157895,107.784592 152.12982,128.759226 178,128.759226 C203.87018,128.759226 224.842105,107.784592 224.842105,81.9110708 C224.842105,50.862845 250.008415,25.6932849 281.052632,25.6932849 C312.096848,25.6932849 337.263158,50.862845 337.263158,81.9110708 C337.263158,112.959297 312.096848,138.128857 281.052632,138.128857 L281.052632,138.128857 Z M281.052632,128.759226 C306.922812,128.759226 327.894737,107.784592 327.894737,81.9110708 C327.894737,56.0375493 306.922812,35.0629159 281.052632,35.0629159 C255.182451,35.0629159 234.210526,56.0375493 234.210526,81.9110708 C234.210526,112.959297 209.044216,138.128857 178,138.128857 C146.955784,138.128857 121.789474,112.959297 121.789474,81.9110708 C121.789474,56.0375493 100.817549,35.0629159 74.9473684,35.0629159 C49.077188,35.0629159 28.1052632,56.0375493 28.1052632,81.9110708 C28.1052632,107.784592 49.077188,128.759226 74.9473684,128.759226 C105.991585,128.759226 131.157895,153.928786 131.157895,184.977011 C131.157895,216.025237 105.991585,241.194797 74.9473684,241.194797 C49.077188,241.194797 28.1052632,262.169431 28.1052632,288.042952 C28.1052632,313.916474 49.077188,334.891107 74.9473684,334.891107 C100.817549,334.891107 121.789474,313.916474 121.789474,288.042952 C121.789474,256.994726 146.955784,231.825166 178,231.825166 C209.044216,231.825166 234.210526,256.994726 234.210526,288.042952 C234.210526,313.916474 255.182451,334.891107 281.052632,334.891107 C306.922812,334.891107 327.894737,313.916474 327.894737,288.042952 C327.894737,262.169431 306.922812,241.194797 281.052632,241.194797 C250.008415,241.194797 224.842105,216.025237 224.842105,184.977011 C224.842105,153.928786 250.008415,128.759226 281.052632,128.759226 Z M281.052632,119.389595 C244.834379,119.389595 215.473684,148.754081 215.473684,184.977011 C215.473684,221.199942 244.834379,250.564428 281.052632,250.564428 C301.748776,250.564428 318.526316,267.344135 318.526316,288.042952 C318.526316,308.741769 301.748776,325.521476 281.052632,325.521476 C260.356487,325.521476 243.578947,308.741769 243.578947,288.042952 C243.578947,251.820022 214.218253,222.455535 178,222.455535 C141.781747,222.455535 112.421053,251.820022 112.421053,288.042952 C112.421053,308.741769 95.6435127,325.521476 74.9473684,325.521476 C54.2512241,325.521476 37.4736842,308.741769 37.4736842,288.042952 C37.4736842,267.344135 54.2512241,250.564428 74.9473684,250.564428 C111.165621,250.564428 140.526316,221.199942 140.526316,184.977011 C140.526316,148.754081 111.165621,119.389595 74.9473684,119.389595 C54.2512241,119.389595 37.4736842,102.609888 37.4736842,81.9110708 C37.4736842,61.2122536 54.2512241,44.4325469 74.9473684,44.4325469 C95.6435127,44.4325469 112.421053,61.2122536 112.421053,81.9110708 C112.421053,118.134001 141.781747,147.498488 178,147.498488 C214.218253,147.498488 243.578947,118.134001 243.578947,81.9110708 C243.578947,61.2122536 260.356487,44.4325469 281.052632,44.4325469 C301.748776,44.4325469 318.526316,61.2122536 318.526316,81.9110708 C318.526316,102.609888 301.748776,119.389595 281.052632,119.389595 L281.052632,119.389595 Z M281.052632,110.019964 C296.57474,110.019964 309.157895,97.4351837 309.157895,81.9110708 C309.157895,66.3869579 296.57474,53.8021779 281.052632,53.8021779 C265.530523,53.8021779 252.947368,66.3869579 252.947368,81.9110708 C252.947368,96.2411773 248.926628,109.632068 241.951882,121.01687 C253.335214,114.041224 266.724376,110.019964 281.052632,110.019964 L281.052632,110.019964 Z M217.10075,145.871212 C205.717418,152.846859 192.328256,156.868119 178,156.868119 C163.671744,156.868119 150.282582,152.846859 138.89925,145.871212 C145.873996,157.256014 149.894737,170.646905 149.894737,184.977011 C149.894737,199.307118 145.873996,212.698009 138.89925,224.082811 C150.282582,217.107164 163.671744,213.085904 178,213.085904 C192.328256,213.085904 205.717418,217.107164 217.10075,224.082811 C210.126004,212.698009 206.105263,199.307118 206.105263,184.977011 C206.105263,170.646905 210.126004,157.256014 217.10075,145.871212 L217.10075,145.871212 Z M241.951882,248.937153 C248.926628,260.321955 252.947368,273.712846 252.947368,288.042952 C252.947368,303.567065 265.530523,316.151845 281.052632,316.151845 C296.57474,316.151845 309.157895,303.567065 309.157895,288.042952 C309.157895,272.518839 296.57474,259.934059 281.052632,259.934059 C266.724376,259.934059 253.335214,255.912799 241.951882,248.937153 L241.951882,248.937153 Z M103.052632,81.9110708 C103.052632,66.3869579 90.4694767,53.8021779 74.9473684,53.8021779 C59.4252602,53.8021779 46.8421053,66.3869579 46.8421053,81.9110708 C46.8421053,97.4351837 59.4252602,110.019964 74.9473684,110.019964 C89.2756245,110.019964 102.664786,114.041224 114.048118,121.01687 C107.073372,109.632068 103.052632,96.2411773 103.052632,81.9110708 L103.052632,81.9110708 Z M74.9473684,259.934059 C59.4252602,259.934059 46.8421053,272.518839 46.8421053,288.042952 C46.8421053,303.567065 59.4252602,316.151845 74.9473684,316.151845 C90.4694767,316.151845 103.052632,303.567065 103.052632,288.042952 C103.052632,273.712846 107.073372,260.321955 114.048118,248.937153 C102.664786,255.912799 89.2756245,259.934059 74.9473684,259.934059 L74.9473684,259.934059 Z" id="Shape" fill-opacity="0.5" filter="url(#filter-1)"></path>
                <path d="M281.052632,149.914096 C265.530523,149.914096 252.947368,162.498876 252.947368,178.022989 C252.947368,193.547101 265.530523,206.131881 281.052632,206.131881 C322.44492,206.131881 356,239.691295 356,281.088929 C356,322.486564 322.44492,356.045977 281.052632,356.045977 C239.660343,356.045977 206.105263,322.486564 206.105263,281.088929 C206.105263,265.564816 193.522108,252.980036 178,252.980036 C162.477892,252.980036 149.894737,265.564816 149.894737,281.088929 C149.894737,322.486564 116.339657,356.045977 74.9473684,356.045977 C33.5550798,356.045977 0,322.486564 0,281.088929 C0,239.691295 33.5550798,206.131881 74.9473684,206.131881 C90.4694767,206.131881 103.052632,193.547101 103.052632,178.022989 C103.052632,162.498876 90.4694767,149.914096 74.9473684,149.914096 C33.5550798,149.914096 0,116.354682 0,74.9570478 C0,33.5594134 33.5550798,5.68434189e-14 74.9473684,5.68434189e-14 C116.339657,5.68434189e-14 149.894737,33.5594134 149.894737,74.9570478 C149.894737,90.4811607 162.477892,103.065941 178,103.065941 C193.522108,103.065941 206.105263,90.4811607 206.105263,74.9570478 C206.105263,33.5594134 239.660343,5.68434189e-14 281.052632,5.68434189e-14 C322.44492,5.68434189e-14 356,33.5594134 356,74.9570478 C356,116.354682 322.44492,149.914096 281.052632,149.914096 Z M281.052632,140.544465 C317.270884,140.544465 346.631579,111.179978 346.631579,74.9570478 C346.631579,38.7341177 317.270884,9.36963097 281.052632,9.36963097 C244.834379,9.36963097 215.473684,38.7341177 215.473684,74.9570478 C215.473684,95.655865 198.696144,112.435572 178,112.435572 C157.303856,112.435572 140.526316,95.655865 140.526316,74.9570478 C140.526316,38.7341177 111.165621,9.36963097 74.9473684,9.36963097 C38.7291159,9.36963097 9.36842105,38.7341177 9.36842105,74.9570478 C9.36842105,111.179978 38.7291159,140.544465 74.9473684,140.544465 C95.6435127,140.544465 112.421053,157.324171 112.421053,178.022989 C112.421053,198.721806 95.6435127,215.501512 74.9473684,215.501512 C38.7291159,215.501512 9.36842105,244.865999 9.36842105,281.088929 C9.36842105,317.311859 38.7291159,346.676346 74.9473684,346.676346 C111.165621,346.676346 140.526316,317.311859 140.526316,281.088929 C140.526316,260.390112 157.303856,243.610405 178,243.610405 C198.696144,243.610405 215.473684,260.390112 215.473684,281.088929 C215.473684,317.311859 244.834379,346.676346 281.052632,346.676346 C317.270884,346.676346 346.631579,317.311859 346.631579,281.088929 C346.631579,244.865999 317.270884,215.501512 281.052632,215.501512 C260.356487,215.501512 243.578947,198.721806 243.578947,178.022989 C243.578947,157.324171 260.356487,140.544465 281.052632,140.544465 Z M281.052632,131.174834 C255.182451,131.174834 234.210526,152.149467 234.210526,178.022989 C234.210526,203.89651 255.182451,224.871143 281.052632,224.871143 C312.096848,224.871143 337.263158,250.040703 337.263158,281.088929 C337.263158,312.137155 312.096848,337.306715 281.052632,337.306715 C250.008415,337.306715 224.842105,312.137155 224.842105,281.088929 C224.842105,255.215408 203.87018,234.240774 178,234.240774 C152.12982,234.240774 131.157895,255.215408 131.157895,281.088929 C131.157895,312.137155 105.991585,337.306715 74.9473684,337.306715 C43.903152,337.306715 18.7368421,312.137155 18.7368421,281.088929 C18.7368421,250.040703 43.903152,224.871143 74.9473684,224.871143 C100.817549,224.871143 121.789474,203.89651 121.789474,178.022989 C121.789474,152.149467 100.817549,131.174834 74.9473684,131.174834 C43.903152,131.174834 18.7368421,106.005274 18.7368421,74.9570478 C18.7368421,43.908822 43.903152,18.7392619 74.9473684,18.7392619 C105.991585,18.7392619 131.157895,43.908822 131.157895,74.9570478 C131.157895,100.830569 152.12982,121.805203 178,121.805203 C203.87018,121.805203 224.842105,100.830569 224.842105,74.9570478 C224.842105,43.908822 250.008415,18.7392619 281.052632,18.7392619 C312.096848,18.7392619 337.263158,43.908822 337.263158,74.9570478 C337.263158,106.005274 312.096848,131.174834 281.052632,131.174834 L281.052632,131.174834 Z M281.052632,121.805203 C306.922812,121.805203 327.894737,100.830569 327.894737,74.9570478 C327.894737,49.0835263 306.922812,28.1088929 281.052632,28.1088929 C255.182451,28.1088929 234.210526,49.0835263 234.210526,74.9570478 C234.210526,106.005274 209.044216,131.174834 178,131.174834 C146.955784,131.174834 121.789474,106.005274 121.789474,74.9570478 C121.789474,49.0835263 100.817549,28.1088929 74.9473684,28.1088929 C49.077188,28.1088929 28.1052632,49.0835263 28.1052632,74.9570478 C28.1052632,100.830569 49.077188,121.805203 74.9473684,121.805203 C105.991585,121.805203 131.157895,146.974763 131.157895,178.022989 C131.157895,209.071214 105.991585,234.240774 74.9473684,234.240774 C49.077188,234.240774 28.1052632,255.215408 28.1052632,281.088929 C28.1052632,306.962451 49.077188,327.937084 74.9473684,327.937084 C100.817549,327.937084 121.789474,306.962451 121.789474,281.088929 C121.789474,250.040703 146.955784,224.871143 178,224.871143 C209.044216,224.871143 234.210526,250.040703 234.210526,281.088929 C234.210526,306.962451 255.182451,327.937084 281.052632,327.937084 C306.922812,327.937084 327.894737,306.962451 327.894737,281.088929 C327.894737,255.215408 306.922812,234.240774 281.052632,234.240774 C250.008415,234.240774 224.842105,209.071214 224.842105,178.022989 C224.842105,146.974763 250.008415,121.805203 281.052632,121.805203 Z M281.052632,112.435572 C244.834379,112.435572 215.473684,141.800058 215.473684,178.022989 C215.473684,214.245919 244.834379,243.610405 281.052632,243.610405 C301.748776,243.610405 318.526316,260.390112 318.526316,281.088929 C318.526316,301.787746 301.748776,318.567453 281.052632,318.567453 C260.356487,318.567453 243.578947,301.787746 243.578947,281.088929 C243.578947,244.865999 214.218253,215.501512 178,215.501512 C141.781747,215.501512 112.421053,244.865999 112.421053,281.088929 C112.421053,301.787746 95.6435127,318.567453 74.9473684,318.567453 C54.2512241,318.567453 37.4736842,301.787746 37.4736842,281.088929 C37.4736842,260.390112 54.2512241,243.610405 74.9473684,243.610405 C111.165621,243.610405 140.526316,214.245919 140.526316,178.022989 C140.526316,141.800058 111.165621,112.435572 74.9473684,112.435572 C54.2512241,112.435572 37.4736842,95.655865 37.4736842,74.9570478 C37.4736842,54.2582306 54.2512241,37.4785239 74.9473684,37.4785239 C95.6435127,37.4785239 112.421053,54.2582306 112.421053,74.9570478 C112.421053,111.179978 141.781747,140.544465 178,140.544465 C214.218253,140.544465 243.578947,111.179978 243.578947,74.9570478 C243.578947,54.2582306 260.356487,37.4785239 281.052632,37.4785239 C301.748776,37.4785239 318.526316,54.2582306 318.526316,74.9570478 C318.526316,95.655865 301.748776,112.435572 281.052632,112.435572 L281.052632,112.435572 Z M281.052632,103.065941 C296.57474,103.065941 309.157895,90.4811607 309.157895,74.9570478 C309.157895,59.4329349 296.57474,46.8481549 281.052632,46.8481549 C265.530523,46.8481549 252.947368,59.4329349 252.947368,74.9570478 C252.947368,89.2871543 248.926628,102.678045 241.951882,114.062847 C253.335214,107.087201 266.724376,103.065941 281.052632,103.065941 L281.052632,103.065941 Z M217.10075,138.917189 C205.717418,145.892836 192.328256,149.914096 178,149.914096 C163.671744,149.914096 150.282582,145.892836 138.89925,138.917189 C145.873996,150.301991 149.894737,163.692882 149.894737,178.022989 C149.894737,192.353095 145.873996,205.743986 138.89925,217.128788 C150.282582,210.153141 163.671744,206.131881 178,206.131881 C192.328256,206.131881 205.717418,210.153141 217.10075,217.128788 C210.126004,205.743986 206.105263,192.353095 206.105263,178.022989 C206.105263,163.692882 210.126004,150.301991 217.10075,138.917189 L217.10075,138.917189 Z M241.951882,241.98313 C248.926628,253.367932 252.947368,266.758823 252.947368,281.088929 C252.947368,296.613042 265.530523,309.197822 281.052632,309.197822 C296.57474,309.197822 309.157895,296.613042 309.157895,281.088929 C309.157895,265.564816 296.57474,252.980036 281.052632,252.980036 C266.724376,252.980036 253.335214,248.958776 241.951882,241.98313 L241.951882,241.98313 Z M103.052632,74.9570478 C103.052632,59.4329349 90.4694767,46.8481549 74.9473684,46.8481549 C59.4252602,46.8481549 46.8421053,59.4329349 46.8421053,74.9570478 C46.8421053,90.4811607 59.4252602,103.065941 74.9473684,103.065941 C89.2756245,103.065941 102.664786,107.087201 114.048118,114.062847 C107.073372,102.678045 103.052632,89.2871543 103.052632,74.9570478 L103.052632,74.9570478 Z M74.9473684,252.980036 C59.4252602,252.980036 46.8421053,265.564816 46.8421053,281.088929 C46.8421053,296.613042 59.4252602,309.197822 74.9473684,309.197822 C90.4694767,309.197822 103.052632,296.613042 103.052632,281.088929 C103.052632,266.758823 107.073372,253.367932 114.048118,241.98313 C102.664786,248.958776 89.2756245,252.980036 74.9473684,252.980036 L74.9473684,252.980036 Z" id="Shape"></path>
            </g>
        </g>
    </g>
</svg>