<?xml version="1.0" encoding="UTF-8"?>
<svg width="15px" height="16px" viewBox="0 0 15 16" version="1.1" xmlns="http://www.w3.org/2000/svg" xmlns:xlink="http://www.w3.org/1999/xlink">
    <!-- Generator: sketchtool 54.1 (76490) - https://sketchapp.com -->
    <title>FD83B631-D637-4676-BCF3-679C2BC6FAB6</title>
    <desc>Created with sketchtool.</desc>
    <g id="Page-1" stroke="none" stroke-width="1" fill="none" fill-rule="evenodd" opacity="0.5">
        <g id="LOGISTICS-PROJECT-v2" transform="translate(-73.000000, -627.000000)">
            <g id="Scroll-down-1" transform="translate(61.000000, 379.000000)">
                <g id="Scroll-down-arrow" transform="translate(9.000000, 246.000000)">
                    <g id="Components-/-Icons-/-fat-arrow" transform="translate(10.000000, 10.000000) rotate(-90.000000) translate(-10.000000, -10.000000) ">
                        <g id="arrow-left">
                            <rect id="Rectangle-2" x="0" y="0" width="20" height="20"></rect>
                            <path d="M9.42366163,12.5194115 L10.7499356,13.8979967 C11.5426761,14.7220048 11.5426761,16.0579859 10.7499356,16.8819939 C9.95719499,17.706002 8.67190858,17.706002 7.87916801,16.8819939 L3.09455543,11.9086653 C2.30181486,11.0846572 2.30181486,9.74867614 3.09455543,8.92466806 L7.87916801,3.95133939 C8.67190858,3.12733131 9.95719499,3.12733131 10.7499356,3.95133939 C11.5426761,4.77534746 11.5426761,6.11132852 10.7499356,6.93533659 L9.42366163,8.31392181 L15.3972551,8.31392181 C16.5585691,8.31392181 17.5,9.25535275 17.5,10.4166667 C17.5,11.5779806 16.5585691,12.5194115 15.3972551,12.5194115 L9.42366163,12.5194115 Z" id="Combined-Shape" fill="#1A1D1A"></path>
                        </g>
                    </g>
                </g>
            </g>
        </g>
    </g>
</svg>