<?xml version="1.0" encoding="UTF-8"?>
<svg width="24px" height="24px" viewBox="0 0 24 24" version="1.1" xmlns="http://www.w3.org/2000/svg" xmlns:xlink="http://www.w3.org/1999/xlink">
    <!-- Generator: sketchtool 55 (78076) - https://sketchapp.com -->
    <title>2044B6CE-C47A-44CA-B965-7C2372375E1F</title>
    <desc>Created with sketchtool.</desc>
    <g id="Symbols" stroke="none" stroke-width="1" fill="none" fill-rule="evenodd">
        <g id="Components-/-Icons-/-Menu-close">
            <g id="Menu-close">
                <rect id="Rectangle-2" x="0" y="0" width="24" height="24"></rect>
                <path d="M9.17157288,12.0502525 L5.63603897,8.51471863 C4.85499039,7.73367004 4.85499039,6.46734008 5.63603897,5.6862915 C6.41708755,4.90524292 7.68341751,4.90524292 8.46446609,5.6862915 L12,9.22182541 L15.5355339,5.6862915 C16.3165825,4.90524292 17.5829124,4.90524292 18.363961,5.6862915 C19.1450096,6.46734008 19.1450096,7.73367004 18.363961,8.51471863 L14.8284271,12.0502525 L18.363961,15.5857864 C19.1450096,16.366835 19.1450096,17.633165 18.363961,18.4142136 C17.5829124,19.1952621 16.3165825,19.1952621 15.5355339,18.4142136 L12,14.8786797 L8.46446609,18.4142136 C7.68341751,19.1952621 6.41708755,19.1952621 5.63603897,18.4142136 C4.85499039,17.633165 4.85499039,16.366835 5.63603897,15.5857864 L9.17157288,12.0502525 Z" id="Combined-Shape" fill="#1E1E1E"></path>
            </g>
        </g>
    </g>
</svg>